<svg xmlns="http://www.w3.org/2000/svg" xmlns:v="https://svgstorm.com"
viewBox = "0 0 176 175"
width="176"
height="175">
<g fill="None" fill-opacity="0.0" stroke="#F7F7F7" stroke-opacity="1.00" stroke-width="0.3"><path d="
M 0.00 175.00 
L 176.00 175.00
L 176.00 0.00
L 0.00 0.00
L 0.00 175.00
M 103.00 34.00 
C 114.99 39.45 124.96 46.46 124.78 61.22 C 124.60 75.98 129.12 91.31 129.00 106.00 C 128.88 120.69 136.39 135.48 128.00 149.00
C 125.63 148.97 124.28 146.50 122.00 146.00
C 116.32 154.30 107.14 142.85 99.99 145.01 C 92.85 147.17 83.46 148.40 76.00 146.00 C 68.54 143.60 56.11 154.37 55.00 144.00
C 52.96 149.23 49.85 149.59 45.00 146.00
C 44.05 132.93 46.07 119.36 47.00 106.00 C 47.93 92.64 50.80 78.44 51.00 65.00 C 51.20 51.56 56.26 42.89 67.74 37.74 C 79.23 32.60 90.42 40.35 103.00 34.00 Z"/>
</g>
<g fill="None" fill-opacity="0.0" stroke="#040406" stroke-opacity="1.00" stroke-width="0.3"><path d="
M 103.00 34.00 
C 90.42 40.35 79.23 32.60 67.74 37.74 C 56.26 42.89 51.20 51.56 51.00 65.00 C 50.80 78.44 47.93 92.64 47.00 106.00 C 46.07 119.36 44.05 132.93 45.00 146.00
C 49.85 149.59 52.96 149.23 55.00 144.00
C 56.11 154.37 68.54 143.60 76.00 146.00 C 83.46 148.40 92.85 147.17 99.99 145.01 C 107.14 142.85 116.32 154.30 122.00 146.00
C 124.28 146.50 125.63 148.97 128.00 149.00
C 136.39 135.48 128.88 120.69 129.00 106.00 C 129.12 91.31 124.60 75.98 124.78 61.22 C 124.96 46.46 114.99 39.45 103.00 34.00
M 90.00 41.00 
C 88.38 45.24 85.18 40.11 90.00 41.00
M 107.00 70.00 
C 105.33 66.07 99.16 69.20 97.00 68.00
C 98.64 64.64 111.02 64.36 107.00 70.00
M 119.00 104.00 
C 119.61 105.69 119.14 111.03 118.00 107.00
C 117.53 105.34 118.93 100.05 119.00 104.00
M 56.00 119.00 
C 56.00 123.33 56.00 127.67 56.00 132.00
C 54.42 128.73 54.29 122.20 56.00 119.00 Z"/>
</g>
<g fill="None" fill-opacity="0.0" stroke="#555B60" stroke-opacity="1.00" stroke-width="0.3"><path d="
M 90.00 41.00 
C 85.18 40.11 88.38 45.24 90.00 41.00 Z"/>
</g>
<g fill="None" fill-opacity="0.0" stroke="#C1C1C1" stroke-opacity="1.00" stroke-width="0.3"><path d="
M 107.00 70.00 
C 111.02 64.36 98.64 64.64 97.00 68.00
C 99.16 69.20 105.33 66.07 107.00 70.00 Z"/>
</g>
<g fill="None" fill-opacity="0.0" stroke="#B5B5B5" stroke-opacity="1.00" stroke-width="0.3"><path d="
M 118.00 107.00 
C 119.22 106.74 119.02 104.95 119.00 104.00
C 118.93 100.05 117.53 105.34 118.00 107.00 Z"/>
</g>
<g fill="None" fill-opacity="0.0" stroke="#484747" stroke-opacity="1.00" stroke-width="0.3"><path d="
M 118.00 107.00 
C 119.14 111.03 119.61 105.69 119.00 104.00
C 119.02 104.95 119.22 106.74 118.00 107.00 Z"/>
</g>
<g fill="None" fill-opacity="0.0" stroke="#B0B0B0" stroke-opacity="1.00" stroke-width="0.3"><path d="
M 56.00 119.00 
C 54.29 122.20 54.42 128.73 56.00 132.00
C 56.00 127.67 56.00 123.33 56.00 119.00 Z"/>
</g>
<g fill="#F7F7F7" fill-opacity="1.00" stroke="None">
<path d="
M 0.00 175.00 
L 176.00 175.00
L 176.00 0.00
L 0.00 0.00
L 0.00 175.00
M 103.00 34.00 
C 114.99 39.45 124.96 46.46 124.78 61.22 C 124.60 75.98 129.12 91.31 129.00 106.00 C 128.88 120.69 136.39 135.48 128.00 149.00
C 125.63 148.97 124.28 146.50 122.00 146.00
C 116.32 154.30 107.14 142.85 99.99 145.01 C 92.85 147.17 83.46 148.40 76.00 146.00 C 68.54 143.60 56.11 154.37 55.00 144.00
C 52.96 149.23 49.85 149.59 45.00 146.00
C 44.05 132.93 46.07 119.36 47.00 106.00 C 47.93 92.64 50.80 78.44 51.00 65.00 C 51.20 51.56 56.26 42.89 67.74 37.74 C 79.23 32.60 90.42 40.35 103.00 34.00 Z"/>
</g>
<g fill="#040406" fill-opacity="1.00" stroke="None">
<path d="
M 103.00 34.00 
C 90.42 40.35 79.23 32.60 67.74 37.74 C 56.26 42.89 51.20 51.56 51.00 65.00 C 50.80 78.44 47.93 92.64 47.00 106.00 C 46.07 119.36 44.05 132.93 45.00 146.00
C 49.85 149.59 52.96 149.23 55.00 144.00
C 56.11 154.37 68.54 143.60 76.00 146.00 C 83.46 148.40 92.85 147.17 99.99 145.01 C 107.14 142.85 116.32 154.30 122.00 146.00
C 124.28 146.50 125.63 148.97 128.00 149.00
C 136.39 135.48 128.88 120.69 129.00 106.00 C 129.12 91.31 124.60 75.98 124.78 61.22 C 124.96 46.46 114.99 39.45 103.00 34.00
M 90.00 41.00 
C 88.38 45.24 85.18 40.11 90.00 41.00
M 107.00 70.00 
C 105.33 66.07 99.16 69.20 97.00 68.00
C 98.64 64.64 111.02 64.36 107.00 70.00
M 119.00 104.00 
C 119.61 105.69 119.14 111.03 118.00 107.00
C 117.53 105.34 118.93 100.05 119.00 104.00
M 56.00 119.00 
C 56.00 123.33 56.00 127.67 56.00 132.00
C 54.42 128.73 54.29 122.20 56.00 119.00 Z"/>
</g>
<g fill="#555B60" fill-opacity="1.00" stroke="None">
<path d="
M 90.00 41.00 
C 85.18 40.11 88.38 45.24 90.00 41.00 Z"/>
</g>
<g fill="#C1C1C1" fill-opacity="1.00" stroke="None">
<path d="
M 107.00 70.00 
C 111.02 64.36 98.64 64.64 97.00 68.00
C 99.16 69.20 105.33 66.07 107.00 70.00 Z"/>
</g>
<g fill="#B5B5B5" fill-opacity="1.00" stroke="None">
<path d="
M 118.00 107.00 
C 119.22 106.74 119.02 104.95 119.00 104.00
C 118.93 100.05 117.53 105.34 118.00 107.00 Z"/>
</g>
<g fill="#484747" fill-opacity="1.00" stroke="None">
<path d="
M 118.00 107.00 
C 119.14 111.03 119.61 105.69 119.00 104.00
C 119.02 104.95 119.22 106.74 118.00 107.00 Z"/>
</g>
<g fill="#B0B0B0" fill-opacity="1.00" stroke="None">
<path d="
M 56.00 119.00 
C 54.29 122.20 54.42 128.73 56.00 132.00
C 56.00 127.67 56.00 123.33 56.00 119.00 Z"/>
</g>
</svg>