<svg xmlns="http://www.w3.org/2000/svg" xmlns:v="https://svgstorm.com"
viewBox = "0 0 176 175"
width="176"
height="175">
<g fill="None" fill-opacity="0.0" stroke="#F7F7F7" stroke-opacity="1.00" stroke-width="0.3"><path d="
M 0.00 175.00 
L 176.00 175.00
L 176.00 0.00
L 0.00 0.00
L 0.00 175.00
M 102.00 34.00 
C 125.14 35.17 128.60 62.83 132.00 80.00
C 127.81 81.80 123.86 84.70 123.00 89.00
C 121.46 89.37 120.60 87.57 119.00 88.00
C 119.99 93.89 121.65 99.67 121.00 106.00
C 120.93 107.84 120.17 109.82 120.00 111.00
C 119.63 120.37 117.13 127.15 117.67 136.67 C 118.21 146.19 113.94 153.46 104.00 152.00 C 94.06 150.54 86.48 148.51 77.93 150.93 C 69.38 153.34 60.25 154.60 60.00 145.00 C 59.75 135.40 58.74 127.16 58.02 117.98 C 57.31 108.79 56.04 99.99 58.00 91.00
C 50.79 86.00 46.31 80.30 49.93 71.93 C 53.55 63.56 50.86 53.40 56.26 46.26 C 61.66 39.11 70.46 40.30 76.00 34.00
C 83.93 39.05 93.62 36.37 102.00 34.00 Z"/>
</g>
<g fill="None" fill-opacity="0.0" stroke="#0D0D10" stroke-opacity="1.00" stroke-width="0.3"><path d="
M 120.00 111.00 
C 120.07 109.16 120.83 107.18 121.00 106.00
C 121.65 99.67 119.99 93.89 119.00 88.00
C 120.60 87.57 121.46 89.37 123.00 89.00
C 118.16 75.50 122.83 58.34 118.00 45.00
C 116.15 47.82 114.54 51.06 111.00 52.00
C 111.43 47.92 114.15 47.12 115.00 43.00
C 110.59 45.55 109.66 38.41 105.00 41.00
C 106.05 37.47 103.83 36.20 102.00 34.00
C 93.62 36.37 83.93 39.05 76.00 34.00
C 70.46 40.30 61.66 39.11 56.26 46.26 C 50.86 53.40 53.55 63.56 49.93 71.93 C 46.31 80.30 50.79 86.00 58.00 91.00
C 56.04 99.99 57.31 108.79 58.02 117.98 C 58.74 127.16 59.75 135.40 60.00 145.00 C 60.25 154.60 69.38 153.34 77.93 150.93 C 86.48 148.51 94.06 150.54 104.00 152.00 C 113.94 153.46 118.21 146.19 117.67 136.67 C 117.13 127.15 119.63 120.37 120.00 111.00
M 92.00 41.00 
C 93.31 42.31 91.29 46.40 89.32 44.66 C 87.34 42.91 90.53 39.53 92.00 41.00
M 109.00 65.00 
C 109.11 65.48 109.00 66.50 109.00 67.00
C 109.71 68.56 110.96 70.48 109.00 72.00
C 108.95 72.15 108.00 72.00 108.00 72.00
C 106.85 74.27 102.39 73.85 100.00 73.00
C 96.77 71.85 97.40 72.94 98.00 70.00
C 98.19 69.07 97.96 67.95 98.00 67.00
C 98.26 61.56 107.72 59.20 109.00 65.00 Z"/>
</g>
<g fill="None" fill-opacity="0.0" stroke="#29262A" stroke-opacity="1.00" stroke-width="0.3"><path d="
M 123.00 89.00 
C 123.86 84.70 127.81 81.80 132.00 80.00
C 128.60 62.83 125.14 35.17 102.00 34.00
C 103.83 36.20 106.05 37.47 105.00 41.00
C 109.66 38.41 110.59 45.55 115.00 43.00
C 114.15 47.12 111.43 47.92 111.00 52.00
C 114.54 51.06 116.15 47.82 118.00 45.00
C 122.83 58.34 118.16 75.50 123.00 89.00 Z"/>
</g>
<g fill="None" fill-opacity="0.0" stroke="#535A61" stroke-opacity="1.00" stroke-width="0.3"><path d="
M 92.00 41.00 
C 90.53 39.53 87.34 42.91 89.32 44.66 C 91.29 46.40 93.31 42.31 92.00 41.00 Z"/>
</g>
<g fill="None" fill-opacity="0.0" stroke="#735C65" stroke-opacity="1.00" stroke-width="0.3"><path d="
M 98.00 67.00 
C 98.05 67.23 98.78 67.71 99.00 68.00
C 100.52 66.47 98.34 65.09 101.00 65.00
C 102.12 64.96 103.96 65.38 105.00 65.00
C 104.53 65.26 106.78 60.88 109.00 65.00
C 107.72 59.20 98.26 61.56 98.00 67.00 Z"/>
</g>
<g fill="None" fill-opacity="0.0" stroke="#3F557D" stroke-opacity="1.00" stroke-width="0.3"><path d="
M 105.00 65.00 
C 102.34 66.46 101.40 64.95 101.00 65.00
C 98.34 65.09 100.52 66.47 99.00 68.00
C 99.91 69.22 101.75 69.78 101.00 72.00
C 103.33 72.00 105.67 72.00 108.00 72.00
C 108.00 72.00 108.95 72.15 109.00 72.00
C 109.45 70.69 109.00 68.39 109.00 67.00
C 109.00 66.50 109.11 65.48 109.00 65.00
C 106.78 60.88 104.53 65.26 105.00 65.00
M 106.00 68.00 
C 104.87 73.15 99.02 66.60 106.00 68.00 Z"/>
</g>
<g fill="None" fill-opacity="0.0" stroke="#4D91A2" stroke-opacity="1.00" stroke-width="0.3"><path d="
M 105.00 65.00 
C 103.96 65.38 102.12 64.96 101.00 65.00
C 101.40 64.95 102.34 66.46 105.00 65.00 Z"/>
</g>
<g fill="None" fill-opacity="0.0" stroke="#8E7D8E" stroke-opacity="1.00" stroke-width="0.3"><path d="
M 98.00 70.00 
C 98.19 71.19 98.89 72.45 100.00 73.00
C 102.39 73.85 106.85 74.27 108.00 72.00
C 105.67 72.00 103.33 72.00 101.00 72.00
C 101.75 69.78 99.91 69.22 99.00 68.00
C 98.78 67.71 98.05 67.23 98.00 67.00
C 97.96 67.95 98.19 69.07 98.00 70.00 Z"/>
</g>
<g fill="None" fill-opacity="0.0" stroke="#7B4E6C" stroke-opacity="1.00" stroke-width="0.3"><path d="
M 109.00 72.00 
C 110.96 70.48 109.71 68.56 109.00 67.00
C 109.00 68.39 109.45 70.69 109.00 72.00 Z"/>
</g>
<g fill="None" fill-opacity="0.0" stroke="#AEAABD" stroke-opacity="1.00" stroke-width="0.3"><path d="
M 106.00 68.00 
C 99.02 66.60 104.87 73.15 106.00 68.00 Z"/>
</g>
<g fill="None" fill-opacity="0.0" stroke="#44474A" stroke-opacity="1.00" stroke-width="0.3"><path d="
M 100.00 73.00 
C 98.89 72.45 98.19 71.19 98.00 70.00
C 97.40 72.94 96.77 71.85 100.00 73.00 Z"/>
</g>
<g fill="None" fill-opacity="0.0" stroke="#7C7A7C" stroke-opacity="1.00" stroke-width="0.3"><path d="
M 120.00 111.00 
C 120.17 109.82 120.93 107.84 121.00 106.00
C 120.83 107.18 120.07 109.16 120.00 111.00 Z"/>
</g>
<g fill="#F7F7F7" fill-opacity="1.00" stroke="None">
<path d="
M 0.00 175.00 
L 176.00 175.00
L 176.00 0.00
L 0.00 0.00
L 0.00 175.00
M 102.00 34.00 
C 125.14 35.17 128.60 62.83 132.00 80.00
C 127.81 81.80 123.86 84.70 123.00 89.00
C 121.46 89.37 120.60 87.57 119.00 88.00
C 119.99 93.89 121.65 99.67 121.00 106.00
C 120.93 107.84 120.17 109.82 120.00 111.00
C 119.63 120.37 117.13 127.15 117.67 136.67 C 118.21 146.19 113.94 153.46 104.00 152.00 C 94.06 150.54 86.48 148.51 77.93 150.93 C 69.38 153.34 60.25 154.60 60.00 145.00 C 59.75 135.40 58.74 127.16 58.02 117.98 C 57.31 108.79 56.04 99.99 58.00 91.00
C 50.79 86.00 46.31 80.30 49.93 71.93 C 53.55 63.56 50.86 53.40 56.26 46.26 C 61.66 39.11 70.46 40.30 76.00 34.00
C 83.93 39.05 93.62 36.37 102.00 34.00 Z"/>
</g>
<g fill="#0D0D10" fill-opacity="1.00" stroke="None">
<path d="
M 120.00 111.00 
C 120.07 109.16 120.83 107.18 121.00 106.00
C 121.65 99.67 119.99 93.89 119.00 88.00
C 120.60 87.57 121.46 89.37 123.00 89.00
C 118.16 75.50 122.83 58.34 118.00 45.00
C 116.15 47.82 114.54 51.06 111.00 52.00
C 111.43 47.92 114.15 47.12 115.00 43.00
C 110.59 45.55 109.66 38.41 105.00 41.00
C 106.05 37.47 103.83 36.20 102.00 34.00
C 93.62 36.37 83.93 39.05 76.00 34.00
C 70.46 40.30 61.66 39.11 56.26 46.26 C 50.86 53.40 53.55 63.56 49.93 71.93 C 46.31 80.30 50.79 86.00 58.00 91.00
C 56.04 99.99 57.31 108.79 58.02 117.98 C 58.74 127.16 59.75 135.40 60.00 145.00 C 60.25 154.60 69.38 153.34 77.93 150.93 C 86.48 148.51 94.06 150.54 104.00 152.00 C 113.94 153.46 118.21 146.19 117.67 136.67 C 117.13 127.15 119.63 120.37 120.00 111.00
M 92.00 41.00 
C 93.31 42.31 91.29 46.40 89.32 44.66 C 87.34 42.91 90.53 39.53 92.00 41.00
M 109.00 65.00 
C 109.11 65.48 109.00 66.50 109.00 67.00
C 109.71 68.56 110.96 70.48 109.00 72.00
C 108.95 72.15 108.00 72.00 108.00 72.00
C 106.85 74.27 102.39 73.85 100.00 73.00
C 96.77 71.85 97.40 72.94 98.00 70.00
C 98.19 69.07 97.96 67.95 98.00 67.00
C 98.26 61.56 107.72 59.20 109.00 65.00 Z"/>
</g>
<g fill="#29262A" fill-opacity="1.00" stroke="None">
<path d="
M 123.00 89.00 
C 123.86 84.70 127.81 81.80 132.00 80.00
C 128.60 62.83 125.14 35.17 102.00 34.00
C 103.83 36.20 106.05 37.47 105.00 41.00
C 109.66 38.41 110.59 45.55 115.00 43.00
C 114.15 47.12 111.43 47.92 111.00 52.00
C 114.54 51.06 116.15 47.82 118.00 45.00
C 122.83 58.34 118.16 75.50 123.00 89.00 Z"/>
</g>
<g fill="#535A61" fill-opacity="1.00" stroke="None">
<path d="
M 92.00 41.00 
C 90.53 39.53 87.34 42.91 89.32 44.66 C 91.29 46.40 93.31 42.31 92.00 41.00 Z"/>
</g>
<g fill="#735C65" fill-opacity="1.00" stroke="None">
<path d="
M 98.00 67.00 
C 98.05 67.23 98.78 67.71 99.00 68.00
C 100.52 66.47 98.34 65.09 101.00 65.00
C 102.12 64.96 103.96 65.38 105.00 65.00
C 104.53 65.26 106.78 60.88 109.00 65.00
C 107.72 59.20 98.26 61.56 98.00 67.00 Z"/>
</g>
<g fill="#3F557D" fill-opacity="1.00" stroke="None">
<path d="
M 105.00 65.00 
C 102.34 66.46 101.40 64.95 101.00 65.00
C 98.34 65.09 100.52 66.47 99.00 68.00
C 99.91 69.22 101.75 69.78 101.00 72.00
C 103.33 72.00 105.67 72.00 108.00 72.00
C 108.00 72.00 108.95 72.15 109.00 72.00
C 109.45 70.69 109.00 68.39 109.00 67.00
C 109.00 66.50 109.11 65.48 109.00 65.00
C 106.78 60.88 104.53 65.26 105.00 65.00
M 106.00 68.00 
C 104.87 73.15 99.02 66.60 106.00 68.00 Z"/>
</g>
<g fill="#4D91A2" fill-opacity="1.00" stroke="None">
<path d="
M 105.00 65.00 
C 103.96 65.38 102.12 64.96 101.00 65.00
C 101.40 64.95 102.34 66.46 105.00 65.00 Z"/>
</g>
<g fill="#8E7D8E" fill-opacity="1.00" stroke="None">
<path d="
M 98.00 70.00 
C 98.19 71.19 98.89 72.45 100.00 73.00
C 102.39 73.85 106.85 74.27 108.00 72.00
C 105.67 72.00 103.33 72.00 101.00 72.00
C 101.75 69.78 99.91 69.22 99.00 68.00
C 98.78 67.71 98.05 67.23 98.00 67.00
C 97.96 67.95 98.19 69.07 98.00 70.00 Z"/>
</g>
<g fill="#7B4E6C" fill-opacity="1.00" stroke="None">
<path d="
M 109.00 72.00 
C 110.96 70.48 109.71 68.56 109.00 67.00
C 109.00 68.39 109.45 70.69 109.00 72.00 Z"/>
</g>
<g fill="#AEAABD" fill-opacity="1.00" stroke="None">
<path d="
M 106.00 68.00 
C 99.02 66.60 104.87 73.15 106.00 68.00 Z"/>
</g>
<g fill="#44474A" fill-opacity="1.00" stroke="None">
<path d="
M 100.00 73.00 
C 98.89 72.45 98.19 71.19 98.00 70.00
C 97.40 72.94 96.77 71.85 100.00 73.00 Z"/>
</g>
<g fill="#7C7A7C" fill-opacity="1.00" stroke="None">
<path d="
M 120.00 111.00 
C 120.17 109.82 120.93 107.84 121.00 106.00
C 120.83 107.18 120.07 109.16 120.00 111.00 Z"/>
</g>
</svg>