<svg xmlns="http://www.w3.org/2000/svg" xmlns:v="https://svgstorm.com"
viewBox = "0 0 176 175"
width="176"
height="175">
<g fill="None" fill-opacity="0.0" stroke="#FEFFFF" stroke-opacity="1.00" stroke-width="0.3"><path d="
M 0.00 87.00 
C -0.05 44.51 35.24 5.34 77.00 0.00
L 0.00 0.00
L 0.00 87.00 Z"/>
</g>
<g fill="None" fill-opacity="0.0" stroke="#F5F6F8" stroke-opacity="1.00" stroke-width="0.3"><path d="
M 0.00 87.00 
L 0.00 88.00
C -0.06 130.80 35.79 170.32 78.00 175.00
L 98.00 175.00
C 140.29 170.31 176.06 130.73 176.00 88.00
L 176.00 87.00
C 175.98 44.26 140.27 4.60 98.00 0.00
L 77.00 0.00
C 35.24 5.34 -0.05 44.51 0.00 87.00
M 98.00 35.00 
C 97.41 37.05 96.18 38.21 95.00 40.00
C 92.21 44.24 89.94 48.52 91.00 54.00
C 94.00 54.00 97.00 54.00 100.00 54.00
C 100.50 54.00 101.52 54.10 102.00 54.00
C 102.62 53.87 103.74 53.29 105.00 54.00
C 107.89 55.63 106.25 59.41 105.00 62.00
C 106.82 65.57 105.18 73.64 106.00 77.00
C 102.99 73.19 101.83 68.72 100.00 62.00
C 101.33 62.00 102.67 62.00 104.00 62.00
C 103.75 61.75 104.00 61.00 104.00 61.00
C 102.12 60.77 101.31 61.34 100.00 60.00
C 99.75 60.25 99.00 60.00 99.00 60.00
C 100.45 62.25 98.05 62.44 96.00 62.00
C 96.50 62.52 96.75 65.78 96.00 66.00
C 96.27 66.44 96.81 68.36 97.00 69.00
C 97.66 71.16 97.74 75.54 97.00 78.00
C 98.28 78.02 100.49 77.42 101.00 79.00
C 90.80 78.19 99.40 93.54 95.00 97.00
C 95.00 97.01 96.08 98.32 95.00 99.00
C 97.99 101.89 96.20 122.02 94.00 125.00
C 94.19 125.09 94.00 126.00 94.00 126.00
C 94.00 126.50 94.00 127.00 94.00 127.00
C 96.72 130.39 92.35 131.67 92.00 135.00
C 92.49 134.95 93.00 135.00 93.00 135.00
C 94.01 134.09 95.32 132.81 97.00 133.00
C 96.33 134.20 95.36 135.58 94.00 136.00
C 93.67 136.18 93.26 136.88 93.00 137.00
C 94.31 138.93 95.50 143.49 93.00 144.00
C 91.79 144.25 90.24 144.00 89.00 144.00
C 88.50 144.00 88.00 144.00 88.00 144.00
C 86.37 144.20 86.01 143.94 85.00 143.00
C 84.50 143.00 84.00 143.00 84.00 143.00
C 82.01 143.26 81.35 142.68 80.00 142.00
C 76.73 140.36 77.30 139.90 77.00 136.00
C 76.49 129.38 77.27 122.64 77.00 116.00
C 76.84 114.89 76.17 112.67 76.00 111.00
C 75.71 108.18 75.12 105.87 75.00 103.00
C 74.65 101.04 74.05 98.57 74.00 96.00
C 73.93 92.67 74.00 89.33 74.00 86.00
C 74.00 84.35 74.13 82.64 74.00 81.00
C 73.86 79.30 74.07 79.15 73.00 78.00
C 70.07 78.26 66.94 78.06 64.00 78.00
C 62.48 78.82 62.15 82.57 62.00 84.00
C 61.91 85.64 62.49 88.02 62.00 90.00
C 62.00 91.00 62.00 92.00 62.00 93.00
C 62.00 94.67 62.00 96.33 62.00 98.00
C 62.00 99.49 61.62 101.57 62.00 103.00
C 62.53 104.05 63.37 105.07 64.00 106.00
C 67.08 110.55 63.72 109.75 59.75 107.25 C 55.78 104.74 56.00 100.84 56.00 96.00
C 56.00 92.58 56.74 88.69 57.00 86.00
C 57.00 74.06 58.96 72.81 70.00 71.00
C 70.49 70.92 71.00 71.00 71.00 71.00
C 71.50 71.00 72.00 71.00 72.00 71.00
C 73.92 68.62 72.33 65.26 74.00 63.00
C 74.22 62.70 75.02 62.09 75.00 62.00
C 74.54 59.91 72.97 59.95 72.00 58.00
C 73.83 57.77 75.47 58.07 77.00 59.00
C 79.85 58.63 79.22 56.62 81.00 58.00
C 81.40 57.80 82.00 58.00 82.00 58.00
C 82.25 57.75 82.00 57.00 82.00 57.00
C 83.34 55.96 86.07 55.19 88.00 55.00
C 87.65 53.29 87.84 50.74 88.00 49.00
C 88.16 47.26 88.39 45.62 89.00 44.00
C 90.11 41.06 92.92 36.28 96.00 35.00
C 96.56 33.63 97.12 31.69 99.00 32.00
C 98.43 32.94 97.85 33.82 98.00 35.00
M 105.00 79.00 
C 104.44 88.47 106.45 101.07 102.00 108.00
C 101.49 102.52 101.40 99.65 101.80 94.75 C 102.21 89.86 100.01 80.41 105.00 79.00
M 103.00 114.00 
C 99.10 122.20 106.91 138.26 98.00 142.00
C 100.14 133.68 96.23 120.36 103.00 114.00 Z"/>
</g>
<g fill="None" fill-opacity="0.0" stroke="#FEFFFF" stroke-opacity="1.00" stroke-width="0.3"><path d="
M 176.00 87.00 
L 176.00 0.00
L 98.00 0.00
C 140.27 4.60 175.98 44.26 176.00 87.00 Z"/>
</g>
<g fill="None" fill-opacity="0.0" stroke="#C2C1B9" stroke-opacity="1.00" stroke-width="0.3"><path d="
M 96.00 35.00 
C 95.83 35.43 96.00 36.00 96.00 36.00
C 96.31 35.74 97.86 35.23 98.00 35.00
C 97.85 33.82 98.43 32.94 99.00 32.00
C 97.12 31.69 96.56 33.63 96.00 35.00 Z"/>
</g>
<g fill="None" fill-opacity="0.0" stroke="#BEBBB4" stroke-opacity="1.00" stroke-width="0.3"><path d="
M 89.00 44.00 
C 88.99 44.15 89.95 44.65 90.00 45.00
C 89.98 45.06 90.91 43.19 91.00 43.00
C 92.18 40.47 94.33 38.19 96.00 36.00
C 96.00 36.00 95.83 35.43 96.00 35.00
C 92.92 36.28 90.11 41.06 89.00 44.00 Z"/>
</g>
<g fill="None" fill-opacity="0.0" stroke="#DCDDD8" stroke-opacity="1.00" stroke-width="0.3"><path d="
M 96.00 36.00 
C 94.33 38.19 92.18 40.47 91.00 43.00
C 91.74 41.84 94.08 40.95 95.00 40.00
C 96.18 38.21 97.41 37.05 98.00 35.00
C 97.86 35.23 96.31 35.74 96.00 36.00 Z"/>
</g>
<g fill="None" fill-opacity="0.0" stroke="#E2E6E1" stroke-opacity="1.00" stroke-width="0.3"><path d="
M 91.00 43.00 
C 90.91 43.19 89.98 45.06 90.00 45.00
C 90.37 47.55 90.00 50.42 90.00 53.00
C 90.00 54.39 89.55 56.70 90.00 58.00
C 90.49 58.08 91.00 58.00 91.00 58.00
C 91.50 58.00 92.00 58.00 92.00 58.00
C 92.50 58.00 93.00 58.00 93.00 58.00
C 93.73 55.27 97.78 56.10 100.00 54.00
C 97.00 54.00 94.00 54.00 91.00 54.00
C 89.94 48.52 92.21 44.24 95.00 40.00
C 94.08 40.95 91.74 41.84 91.00 43.00 Z"/>
</g>
<g fill="None" fill-opacity="0.0" stroke="#AFADA4" stroke-opacity="1.00" stroke-width="0.3"><path d="
M 88.00 49.00 
C 88.07 49.83 89.05 51.49 89.00 53.00
C 89.34 52.77 90.00 53.00 90.00 53.00
C 90.00 50.42 90.37 47.55 90.00 45.00
C 89.95 44.65 88.99 44.15 89.00 44.00
C 88.39 45.62 88.16 47.26 88.00 49.00 Z"/>
</g>
<g fill="None" fill-opacity="0.0" stroke="#949994" stroke-opacity="1.00" stroke-width="0.3"><path d="
M 88.00 55.00 
C 88.25 54.75 89.00 55.00 89.00 55.00
C 89.00 54.50 88.98 53.50 89.00 53.00
C 89.05 51.49 88.07 49.83 88.00 49.00
C 87.84 50.74 87.65 53.29 88.00 55.00 Z"/>
</g>
<g fill="None" fill-opacity="0.0" stroke="#BBC2C2" stroke-opacity="1.00" stroke-width="0.3"><path d="
M 89.00 55.00 
C 89.01 55.97 88.60 57.77 90.00 58.00
C 89.55 56.70 90.00 54.39 90.00 53.00
C 90.00 53.00 89.34 52.77 89.00 53.00
C 88.98 53.50 89.00 54.50 89.00 55.00 Z"/>
</g>
<g fill="None" fill-opacity="0.0" stroke="#E8EFEF" stroke-opacity="1.00" stroke-width="0.3"><path d="
M 102.00 54.00 
C 102.23 54.34 102.00 55.00 102.00 55.00
C 102.00 55.31 102.21 57.87 102.00 58.00
C 103.07 58.28 104.02 58.36 105.00 59.00
C 105.00 57.33 105.00 55.67 105.00 54.00
C 103.74 53.29 102.62 53.87 102.00 54.00 Z"/>
</g>
<g fill="None" fill-opacity="0.0" stroke="#D7DEDA" stroke-opacity="1.00" stroke-width="0.3"><path d="
M 93.00 58.00 
C 95.11 58.23 98.31 58.41 100.00 57.00
C 100.91 55.27 99.88 55.70 102.00 55.00
C 102.00 55.00 102.23 54.34 102.00 54.00
C 101.52 54.10 100.50 54.00 100.00 54.00
C 97.78 56.10 93.73 55.27 93.00 58.00 Z"/>
</g>
<g fill="None" fill-opacity="0.0" stroke="#D7DEDA" stroke-opacity="1.00" stroke-width="0.3"><path d="
M 102.00 58.00 
C 101.69 58.20 101.26 58.88 101.00 59.00
C 102.54 59.16 105.09 59.67 104.00 61.00
C 104.00 61.00 103.75 61.75 104.00 62.00
C 104.49 62.07 105.00 62.00 105.00 62.00
C 106.25 59.41 107.89 55.63 105.00 54.00
C 105.00 55.67 105.00 57.33 105.00 59.00
C 104.02 58.36 103.07 58.28 102.00 58.00 Z"/>
</g>
<g fill="None" fill-opacity="0.0" stroke="#C6CDCD" stroke-opacity="1.00" stroke-width="0.3"><path d="
M 82.00 57.00 
C 83.94 56.84 86.29 56.96 88.00 56.00
C 87.95 55.50 88.00 55.00 88.00 55.00
C 86.07 55.19 83.34 55.96 82.00 57.00 Z"/>
</g>
<g fill="None" fill-opacity="0.0" stroke="#999E9D" stroke-opacity="1.00" stroke-width="0.3"><path d="
M 88.00 56.00 
C 88.21 58.13 86.66 57.95 85.00 58.00
C 85.25 58.27 85.00 59.00 85.00 59.00
C 86.82 60.74 88.10 60.36 90.00 60.00
C 86.91 59.65 89.68 58.51 91.00 58.00
C 91.00 58.00 90.49 58.08 90.00 58.00
C 88.60 57.77 89.01 55.97 89.00 55.00
C 89.00 55.00 88.25 54.75 88.00 55.00
C 88.00 55.00 87.95 55.50 88.00 56.00 Z"/>
</g>
<g fill="None" fill-opacity="0.0" stroke="#B5B6B2" stroke-opacity="1.00" stroke-width="0.3"><path d="
M 100.00 57.00 
C 99.89 57.21 98.75 58.77 99.00 59.00
C 99.50 59.00 100.00 59.00 100.00 59.00
C 100.50 59.00 101.00 59.00 101.00 59.00
C 101.26 58.88 101.69 58.20 102.00 58.00
C 102.21 57.87 102.00 55.31 102.00 55.00
C 99.88 55.70 100.91 55.27 100.00 57.00 Z"/>
</g>
<g fill="None" fill-opacity="0.0" stroke="#E2E6E1" stroke-opacity="1.00" stroke-width="0.3"><path d="
M 82.00 57.00 
C 82.00 57.00 82.25 57.75 82.00 58.00
C 82.99 58.00 84.01 58.07 85.00 58.00
C 86.66 57.95 88.21 58.13 88.00 56.00
C 86.29 56.96 83.94 56.84 82.00 57.00 Z"/>
</g>
<g fill="None" fill-opacity="0.0" stroke="#9C9D9F" stroke-opacity="1.00" stroke-width="0.3"><path d="
M 77.00 59.00 
C 78.04 59.41 78.45 59.93 80.00 60.00
C 80.42 59.79 80.72 58.14 81.00 58.00
C 79.22 56.62 79.85 58.63 77.00 59.00 Z"/>
</g>
<g fill="None" fill-opacity="0.0" stroke="#B9B8B6" stroke-opacity="1.00" stroke-width="0.3"><path d="
M 93.00 58.00 
C 93.00 58.00 92.50 58.00 92.00 58.00
C 92.26 58.12 92.65 58.97 93.00 59.00
C 93.50 59.05 94.00 59.00 94.00 59.00
C 95.67 59.00 97.33 59.00 99.00 59.00
C 98.75 58.77 99.89 57.21 100.00 57.00
C 98.31 58.41 95.11 58.23 93.00 58.00 Z"/>
</g>
<g fill="None" fill-opacity="0.0" stroke="#BBC2C2" stroke-opacity="1.00" stroke-width="0.3"><path d="
M 75.00 62.00 
C 75.30 62.24 76.50 62.00 77.00 62.00
C 78.65 61.21 80.73 60.55 83.00 61.00
C 83.70 63.72 84.80 64.83 87.00 66.00
C 87.50 66.00 88.00 66.00 88.00 66.00
C 88.39 66.00 90.76 65.74 91.00 66.00
C 90.20 65.46 90.03 65.42 89.00 65.00
C 86.89 64.14 86.07 62.71 89.00 62.00
C 89.27 61.75 90.00 62.00 90.00 62.00
C 90.89 61.51 92.38 60.98 93.00 60.00
C 92.69 60.33 90.48 59.91 90.00 60.00
C 88.10 60.36 86.82 60.74 85.00 59.00
C 83.94 60.27 81.46 60.06 80.00 60.00
C 78.45 59.93 78.04 59.41 77.00 59.00
C 75.47 58.07 73.83 57.77 72.00 58.00
C 72.97 59.95 74.54 59.91 75.00 62.00 Z"/>
</g>
<g fill="None" fill-opacity="0.0" stroke="#767678" stroke-opacity="1.00" stroke-width="0.3"><path d="
M 80.00 60.00 
C 81.46 60.06 83.94 60.27 85.00 59.00
C 85.00 59.00 85.25 58.27 85.00 58.00
C 84.01 58.07 82.99 58.00 82.00 58.00
C 82.00 58.00 81.40 57.80 81.00 58.00
C 80.72 58.14 80.42 59.79 80.00 60.00 Z"/>
</g>
<g fill="None" fill-opacity="0.0" stroke="#BBC2C2" stroke-opacity="1.00" stroke-width="0.3"><path d="
M 90.00 60.00 
C 90.48 59.91 92.69 60.33 93.00 60.00
C 93.23 59.64 93.00 59.00 93.00 59.00
C 92.65 58.97 92.26 58.12 92.00 58.00
C 92.00 58.00 91.50 58.00 91.00 58.00
C 89.68 58.51 86.91 59.65 90.00 60.00 Z"/>
</g>
<g fill="None" fill-opacity="0.0" stroke="#CFD5D6" stroke-opacity="1.00" stroke-width="0.3"><path d="
M 93.00 60.00 
C 92.38 60.98 90.89 61.51 90.00 62.00
C 91.20 63.72 91.00 64.10 93.00 65.00
C 92.54 64.08 92.94 62.30 94.00 62.00
C 94.46 61.87 95.84 62.23 96.00 62.00
C 96.23 61.66 96.00 61.00 96.00 61.00
C 95.45 60.42 94.53 59.51 94.00 59.00
C 94.00 59.00 93.50 59.05 93.00 59.00
C 93.00 59.00 93.23 59.64 93.00 60.00 Z"/>
</g>
<g fill="None" fill-opacity="0.0" stroke="#C6CDCD" stroke-opacity="1.00" stroke-width="0.3"><path d="
M 96.00 61.00 
C 96.50 60.69 98.30 60.26 99.00 60.00
C 99.00 60.00 99.75 60.25 100.00 60.00
C 100.25 59.75 100.00 59.00 100.00 59.00
C 100.00 59.00 99.50 59.00 99.00 59.00
C 97.33 59.00 95.67 59.00 94.00 59.00
C 94.53 59.51 95.45 60.42 96.00 61.00 Z"/>
</g>
<g fill="None" fill-opacity="0.0" stroke="#BBC2C2" stroke-opacity="1.00" stroke-width="0.3"><path d="
M 100.00 60.00 
C 101.31 61.34 102.12 60.77 104.00 61.00
C 105.09 59.67 102.54 59.16 101.00 59.00
C 101.00 59.00 100.50 59.00 100.00 59.00
C 100.00 59.00 100.25 59.75 100.00 60.00 Z"/>
</g>
<g fill="None" fill-opacity="0.0" stroke="#E4E5E7" stroke-opacity="1.00" stroke-width="0.3"><path d="
M 96.00 61.00 
C 96.00 61.00 96.23 61.66 96.00 62.00
C 98.05 62.44 100.45 62.25 99.00 60.00
C 98.30 60.26 96.50 60.69 96.00 61.00 Z"/>
</g>
<g fill="None" fill-opacity="0.0" stroke="#A0A6A7" stroke-opacity="1.00" stroke-width="0.3"><path d="
M 77.00 62.00 
C 77.50 62.00 78.50 62.00 79.00 62.00
C 79.50 62.00 80.00 62.00 80.00 62.00
C 80.50 62.00 81.00 62.00 81.00 62.00
C 82.47 62.75 82.08 65.51 82.00 67.00
C 82.45 65.93 85.11 65.94 86.00 66.00
C 86.50 66.04 87.00 66.00 87.00 66.00
C 84.80 64.83 83.70 63.72 83.00 61.00
C 80.73 60.55 78.65 61.21 77.00 62.00 Z"/>
</g>
<g fill="None" fill-opacity="0.0" stroke="#959692" stroke-opacity="1.00" stroke-width="0.3"><path d="
M 74.00 63.00 
C 73.65 64.48 73.69 67.51 74.00 69.00
C 74.26 68.75 75.00 69.00 75.00 69.00
C 75.20 67.53 75.63 63.30 75.00 62.00
C 75.02 62.09 74.22 62.70 74.00 63.00 Z"/>
</g>
<g fill="None" fill-opacity="0.0" stroke="#858986" stroke-opacity="1.00" stroke-width="0.3"><path d="
M 75.00 69.00 
C 75.85 69.57 75.67 69.90 77.00 70.00
C 77.50 70.04 78.50 70.00 79.00 70.00
C 79.50 70.00 80.00 70.00 80.00 70.00
C 78.86 67.76 78.53 64.58 79.00 62.00
C 78.50 62.00 77.50 62.00 77.00 62.00
C 76.50 62.00 75.30 62.24 75.00 62.00
C 75.63 63.30 75.20 67.53 75.00 69.00 Z"/>
</g>
<g fill="None" fill-opacity="0.0" stroke="#959692" stroke-opacity="1.00" stroke-width="0.3"><path d="
M 80.00 70.00 
C 81.03 69.90 80.90 68.72 81.00 68.00
C 80.92 66.65 79.99 64.04 80.00 62.00
C 80.00 62.00 79.50 62.00 79.00 62.00
C 78.53 64.58 78.86 67.76 80.00 70.00 Z"/>
</g>
<g fill="None" fill-opacity="0.0" stroke="#949994" stroke-opacity="1.00" stroke-width="0.3"><path d="
M 81.00 68.00 
C 81.24 66.35 81.34 63.63 81.00 62.00
C 81.00 62.00 80.50 62.00 80.00 62.00
C 79.99 64.04 80.92 66.65 81.00 68.00 Z"/>
</g>
<g fill="None" fill-opacity="0.0" stroke="#999E9D" stroke-opacity="1.00" stroke-width="0.3"><path d="
M 81.00 68.00 
C 80.90 68.72 81.03 69.90 80.00 70.00
C 80.00 70.00 79.50 70.00 79.00 70.00
C 80.13 72.24 80.03 73.30 80.00 76.00 C 79.97 78.70 75.93 77.18 75.00 78.00
C 74.92 78.98 75.00 80.01 75.00 81.00
C 75.00 82.67 75.00 84.33 75.00 86.00
C 75.00 89.00 75.00 92.00 75.00 95.00
C 76.85 92.50 75.81 88.24 76.00 85.00
C 76.12 83.01 75.91 80.99 76.00 79.00
C 77.00 79.00 78.00 79.00 79.00 79.00
C 81.81 80.36 79.63 87.53 79.22 90.22 C 78.81 92.91 79.44 99.24 78.00 102.00
C 75.88 101.26 78.36 95.67 75.00 98.00
C 75.00 98.50 75.00 99.00 75.00 99.00
C 76.04 101.20 75.67 104.69 77.00 107.00
C 77.94 106.47 79.75 104.84 80.00 104.00
C 80.26 102.06 79.93 99.96 80.00 98.00
C 80.06 96.17 80.85 94.16 81.00 93.00
C 81.05 91.34 81.00 89.66 81.00 88.00
C 81.00 83.46 81.64 78.97 82.00 76.00
C 81.97 73.25 81.45 71.31 82.00 69.00
C 82.11 68.53 81.97 67.50 82.00 67.00
C 82.08 65.51 82.47 62.75 81.00 62.00
C 81.34 63.63 81.24 66.35 81.00 68.00 Z"/>
</g>
<g fill="None" fill-opacity="0.0" stroke="#C6CDCD" stroke-opacity="1.00" stroke-width="0.3"><path d="
M 89.00 65.00 
C 88.90 64.84 88.88 62.11 89.00 62.00
C 86.07 62.71 86.89 64.14 89.00 65.00 Z"/>
</g>
<g fill="None" fill-opacity="0.0" stroke="#CFD5D6" stroke-opacity="1.00" stroke-width="0.3"><path d="
M 89.00 65.00 
C 90.03 65.42 90.20 65.46 91.00 66.00
C 91.25 65.75 92.00 66.00 92.00 66.00
C 92.50 66.00 93.00 66.00 93.00 66.00
C 93.50 66.00 94.00 66.00 94.00 66.00
C 93.74 65.88 93.34 65.15 93.00 65.00
C 91.00 64.10 91.20 63.72 90.00 62.00
C 90.00 62.00 89.27 61.75 89.00 62.00
C 88.88 62.11 88.90 64.84 89.00 65.00 Z"/>
</g>
<g fill="None" fill-opacity="0.0" stroke="#E2E6E1" stroke-opacity="1.00" stroke-width="0.3"><path d="
M 93.00 65.00 
C 93.34 65.15 93.74 65.88 94.00 66.00
C 94.41 66.19 95.00 66.00 95.00 66.00
C 94.98 65.92 94.36 61.70 94.00 62.00
C 92.94 62.30 92.54 64.08 93.00 65.00 Z"/>
</g>
<g fill="None" fill-opacity="0.0" stroke="#EFF0F2" stroke-opacity="1.00" stroke-width="0.3"><path d="
M 95.00 66.00 
C 95.50 66.00 96.00 66.00 96.00 66.00
C 96.75 65.78 96.50 62.52 96.00 62.00
C 95.84 62.23 94.46 61.87 94.00 62.00
C 94.36 61.70 94.98 65.92 95.00 66.00 Z"/>
</g>
<g fill="None" fill-opacity="0.0" stroke="#FEFFFF" stroke-opacity="1.00" stroke-width="0.3"><path d="
M 105.00 62.00 
C 105.00 62.00 104.49 62.07 104.00 62.00
C 102.67 62.00 101.33 62.00 100.00 62.00
C 101.83 68.72 102.99 73.19 106.00 77.00
C 105.18 73.64 106.82 65.57 105.00 62.00 Z"/>
</g>
<g fill="None" fill-opacity="0.0" stroke="#CFD5D6" stroke-opacity="1.00" stroke-width="0.3"><path d="
M 72.00 71.00 
C 73.22 70.81 73.35 69.63 74.00 69.00
C 73.69 67.51 73.65 64.48 74.00 63.00
C 72.33 65.26 73.92 68.62 72.00 71.00 Z"/>
</g>
<g fill="None" fill-opacity="0.0" stroke="#2B2C2D" stroke-opacity="1.00" stroke-width="0.3"><path d="
M 82.00 67.00 
C 81.97 67.50 82.11 68.53 82.00 69.00
C 82.85 68.60 83.26 68.44 84.00 68.00
C 85.44 67.14 85.24 68.12 86.00 66.00
C 85.11 65.94 82.45 65.93 82.00 67.00 Z"/>
</g>
<g fill="None" fill-opacity="0.0" stroke="#676869" stroke-opacity="1.00" stroke-width="0.3"><path d="
M 84.00 68.00 
C 84.21 68.26 84.75 68.91 85.00 69.00
C 85.38 68.82 87.68 68.59 87.00 69.00
C 87.05 68.58 88.07 68.03 88.00 67.00
C 87.97 66.50 88.00 66.00 88.00 66.00
C 88.00 66.00 87.50 66.00 87.00 66.00
C 87.00 66.00 86.50 66.04 86.00 66.00
C 85.24 68.12 85.44 67.14 84.00 68.00 Z"/>
</g>
<g fill="None" fill-opacity="0.0" stroke="#3F3F41" stroke-opacity="1.00" stroke-width="0.3"><path d="
M 88.00 67.00 
C 88.58 67.87 88.64 67.81 89.00 69.00
C 89.20 69.24 90.00 69.00 90.00 69.00
C 90.08 68.90 90.83 67.26 91.00 67.00
C 91.23 66.65 91.00 66.00 91.00 66.00
C 90.76 65.74 88.39 66.00 88.00 66.00
C 88.00 66.00 87.97 66.50 88.00 67.00 Z"/>
</g>
<g fill="None" fill-opacity="0.0" stroke="#717173" stroke-opacity="1.00" stroke-width="0.3"><path d="
M 91.00 67.00 
C 91.03 67.05 91.74 66.12 92.00 66.00
C 92.00 66.00 91.25 65.75 91.00 66.00
C 91.00 66.00 91.23 66.65 91.00 67.00 Z"/>
</g>
<g fill="None" fill-opacity="0.0" stroke="#8E8D8C" stroke-opacity="1.00" stroke-width="0.3"><path d="
M 91.00 67.00 
C 90.83 67.26 90.08 68.90 90.00 69.00
C 90.03 69.13 91.00 69.00 91.00 69.00
C 91.50 69.00 92.00 69.00 92.00 69.00
C 93.04 68.43 92.54 66.73 93.00 66.00
C 93.00 66.00 92.50 66.00 92.00 66.00
C 91.74 66.12 91.03 67.05 91.00 67.00 Z"/>
</g>
<g fill="None" fill-opacity="0.0" stroke="#5F6062" stroke-opacity="1.00" stroke-width="0.3"><path d="
M 92.00 69.00 
C 92.50 69.00 93.00 69.00 93.00 69.00
C 93.50 69.00 94.50 69.00 95.00 69.00
C 93.98 68.60 94.39 66.63 94.00 66.00
C 94.00 66.00 93.50 66.00 93.00 66.00
C 92.54 66.73 93.04 68.43 92.00 69.00 Z"/>
</g>
<g fill="None" fill-opacity="0.0" stroke="#9B9A99" stroke-opacity="1.00" stroke-width="0.3"><path d="
M 95.00 69.00 
C 95.50 69.00 96.66 69.23 97.00 69.00
C 96.81 68.36 96.27 66.44 96.00 66.00
C 96.00 66.00 95.50 66.00 95.00 66.00
C 95.00 66.00 94.41 66.19 94.00 66.00
C 94.39 66.63 93.98 68.60 95.00 69.00 Z"/>
</g>
<g fill="None" fill-opacity="0.0" stroke="#BBC2C2" stroke-opacity="1.00" stroke-width="0.3"><path d="
M 87.00 69.00 
C 86.41 73.73 89.98 77.03 88.00 80.00
C 88.14 80.45 90.36 82.18 90.00 83.00
C 90.20 80.73 90.59 80.50 92.00 79.00
C 91.73 78.87 91.24 78.26 91.00 78.00
C 89.30 76.16 89.78 71.61 89.00 69.00
C 88.64 67.81 88.58 67.87 88.00 67.00
C 88.07 68.03 87.05 68.58 87.00 69.00 Z"/>
</g>
<g fill="None" fill-opacity="0.0" stroke="#AAAEAB" stroke-opacity="1.00" stroke-width="0.3"><path d="
M 82.00 69.00 
C 81.45 71.31 81.97 73.25 82.00 76.00
C 82.04 79.49 81.36 84.60 81.00 88.00
C 81.00 89.66 81.05 91.34 81.00 93.00
C 80.95 94.85 80.15 96.83 80.00 98.00
C 79.93 99.96 80.26 102.06 80.00 104.00
C 79.77 105.72 78.70 107.10 79.00 109.00
C 77.59 109.51 76.85 108.19 77.00 107.00
C 75.67 104.69 76.04 101.20 75.00 99.00
C 75.00 100.33 74.94 101.67 75.00 103.00
C 75.12 105.87 75.71 108.18 76.00 111.00
C 76.30 112.39 76.92 114.04 77.00 116.00
C 77.27 122.64 76.49 129.38 77.00 136.00
C 77.09 131.83 78.00 125.90 78.00 121.00
C 78.00 118.48 77.22 114.70 79.00 113.00
C 78.97 115.74 80.63 118.08 80.00 121.00
C 80.00 122.00 80.00 123.00 80.00 124.00
C 80.72 127.28 80.85 131.12 81.00 135.00
C 81.09 137.37 82.50 142.00 80.00 142.00
C 81.35 142.68 82.01 143.26 84.00 143.00
C 83.75 142.75 84.00 142.00 84.00 142.00
C 83.88 141.74 83.22 141.30 83.00 141.00
C 79.64 136.44 83.14 128.25 83.00 123.00 C 82.85 117.75 80.11 111.04 81.99 105.99 C 83.87 100.94 82.01 91.97 83.00 87.00 C 83.99 82.03 80.19 72.89 83.00 70.00
C 83.49 69.50 84.40 69.28 85.00 69.00
C 84.75 68.91 84.21 68.26 84.00 68.00
C 83.26 68.44 82.85 68.60 82.00 69.00 Z"/>
</g>
<g fill="None" fill-opacity="0.0" stroke="#BBC2C2" stroke-opacity="1.00" stroke-width="0.3"><path d="
M 85.00 69.00 
C 84.40 69.28 83.49 69.50 83.00 70.00
C 82.00 73.99 85.21 74.11 84.00 80.00 C 82.80 85.90 83.61 86.06 84.00 94.00 C 84.39 101.94 82.31 112.33 84.00 120.00 C 85.69 127.67 81.35 126.72 83.00 133.00
C 83.81 132.94 85.42 133.42 86.00 134.00
C 85.38 132.71 84.67 131.57 85.00 130.00
C 86.26 130.08 85.56 132.06 87.00 132.00
C 86.56 131.21 87.04 128.93 87.00 128.00
C 86.92 125.77 85.99 126.18 89.00 125.00
C 90.43 124.44 90.19 124.13 92.00 125.00
C 91.66 124.71 90.22 123.29 90.00 123.00
C 88.46 120.98 89.00 117.71 89.00 115.00
C 88.75 115.25 87.50 115.00 87.00 115.00
C 87.27 117.98 86.80 121.02 87.00 124.00
C 84.92 121.90 86.50 117.85 86.00 115.00
C 86.86 113.73 88.80 109.71 89.00 113.00
C 89.38 111.72 90.05 111.71 89.00 110.00
C 88.02 110.13 86.99 109.90 86.00 110.00
C 87.12 102.29 88.00 92.22 86.00 84.00
C 85.78 83.62 86.00 83.00 86.00 83.00
C 84.64 81.35 87.16 81.27 88.00 80.00
C 89.98 77.03 86.41 73.73 87.00 69.00
C 87.68 68.59 85.38 68.82 85.00 69.00 Z"/>
</g>
<g fill="None" fill-opacity="0.0" stroke="#8C928C" stroke-opacity="1.00" stroke-width="0.3"><path d="
M 72.00 71.00 
C 72.00 71.00 71.50 71.00 71.00 71.00
C 69.26 72.50 70.54 73.81 71.00 75.00
C 71.09 74.00 70.54 72.27 72.00 72.00
C 71.77 73.83 72.07 75.47 73.00 77.00
C 73.12 77.47 73.00 78.00 73.00 78.00
C 74.07 79.15 73.86 79.30 74.00 81.00
C 74.05 81.14 75.00 81.00 75.00 81.00
C 75.00 80.01 74.92 78.98 75.00 78.00
C 75.09 76.93 75.46 76.87 78.00 77.00
C 77.80 74.13 79.46 72.15 77.00 70.00
C 75.67 69.90 75.85 69.57 75.00 69.00
C 75.00 69.00 74.26 68.75 74.00 69.00
C 73.35 69.63 73.22 70.81 72.00 71.00 Z"/>
</g>
<g fill="None" fill-opacity="0.0" stroke="#CFD5D6" stroke-opacity="1.00" stroke-width="0.3"><path d="
M 91.00 78.00 
C 90.61 74.96 91.45 71.76 90.00 69.00
C 90.00 69.00 89.20 69.24 89.00 69.00
C 89.78 71.61 89.30 76.16 91.00 78.00 Z"/>
</g>
<g fill="None" fill-opacity="0.0" stroke="#D7DEDA" stroke-opacity="1.00" stroke-width="0.3"><path d="
M 91.00 78.00 
C 91.24 78.26 91.73 78.87 92.00 79.00
C 93.54 79.76 94.19 78.21 95.00 78.00
C 94.50 78.00 94.00 78.00 94.00 78.00
C 90.62 77.50 92.42 71.69 91.00 69.00
C 91.00 69.00 90.03 69.13 90.00 69.00
C 91.45 71.76 90.61 74.96 91.00 78.00 Z"/>
</g>
<g fill="None" fill-opacity="0.0" stroke="#E4E5E7" stroke-opacity="1.00" stroke-width="0.3"><path d="
M 94.00 78.00 
C 95.31 75.41 95.78 70.95 93.00 69.00
C 93.00 69.00 92.50 69.00 92.00 69.00
C 92.00 69.00 91.50 69.00 91.00 69.00
C 92.42 71.69 90.62 77.50 94.00 78.00 Z"/>
</g>
<g fill="None" fill-opacity="0.0" stroke="#EFF0F2" stroke-opacity="1.00" stroke-width="0.3"><path d="
M 94.00 78.00 
C 94.00 78.00 94.50 78.00 95.00 78.00
C 95.50 78.00 96.50 77.99 97.00 78.00
C 97.74 75.54 97.66 71.16 97.00 69.00
C 96.66 69.23 95.50 69.00 95.00 69.00
C 94.50 69.00 93.50 69.00 93.00 69.00
C 95.78 70.95 95.31 75.41 94.00 78.00 Z"/>
</g>
<g fill="None" fill-opacity="0.0" stroke="#959692" stroke-opacity="1.00" stroke-width="0.3"><path d="
M 75.00 78.00 
C 75.93 77.18 79.97 78.70 80.00 76.00 C 80.03 73.30 80.13 72.24 79.00 70.00
C 78.50 70.00 77.50 70.04 77.00 70.00
C 79.46 72.15 77.80 74.13 78.00 77.00
C 75.46 76.87 75.09 76.93 75.00 78.00 Z"/>
</g>
<g fill="None" fill-opacity="0.0" stroke="#B5B9B6" stroke-opacity="1.00" stroke-width="0.3"><path d="
M 83.00 141.00 
C 82.69 139.35 82.38 134.92 84.00 136.00
C 84.35 136.23 85.00 136.00 85.00 136.00
C 84.37 135.43 83.22 133.82 83.00 133.00
C 81.35 126.72 85.69 127.67 84.00 120.00 C 82.31 112.33 84.39 101.94 84.00 94.00 C 83.61 86.06 82.80 85.90 84.00 80.00 C 85.21 74.11 82.00 73.99 83.00 70.00
C 80.19 72.89 83.99 82.03 83.00 87.00 C 82.01 91.97 83.87 100.94 81.99 105.99 C 80.11 111.04 82.85 117.75 83.00 123.00 C 83.14 128.25 79.64 136.44 83.00 141.00 Z"/>
</g>
<g fill="None" fill-opacity="0.0" stroke="#BBC2C2" stroke-opacity="1.00" stroke-width="0.3"><path d="
M 57.00 86.00 
C 57.00 89.31 56.80 92.70 57.00 96.00
C 57.10 97.66 56.92 99.34 57.00 101.00
C 59.83 93.83 56.82 83.91 61.00 77.00
C 62.11 77.98 62.28 79.32 64.00 78.00
C 66.94 78.06 70.07 78.26 73.00 78.00
C 73.00 78.00 73.12 77.47 73.00 77.00
C 72.84 76.77 71.50 77.00 71.00 77.00
C 70.50 77.00 70.00 77.00 70.00 77.00
C 66.19 76.76 64.88 73.04 69.00 72.00
C 69.35 71.91 69.74 71.12 70.00 71.00
C 58.96 72.81 57.00 74.06 57.00 86.00 Z"/>
</g>
<g fill="None" fill-opacity="0.0" stroke="#AAABA7" stroke-opacity="1.00" stroke-width="0.3"><path d="
M 69.00 72.00 
C 67.93 73.40 68.83 75.71 70.00 77.00
C 70.00 77.00 70.50 77.00 71.00 77.00
C 71.23 76.84 71.17 75.43 71.00 75.00
C 70.54 73.81 69.26 72.50 71.00 71.00
C 71.00 71.00 70.49 70.92 70.00 71.00
C 69.74 71.12 69.35 71.91 69.00 72.00 Z"/>
</g>
<g fill="None" fill-opacity="0.0" stroke="#B5B6B2" stroke-opacity="1.00" stroke-width="0.3"><path d="
M 70.00 77.00 
C 68.83 75.71 67.93 73.40 69.00 72.00
C 64.88 73.04 66.19 76.76 70.00 77.00 Z"/>
</g>
<g fill="None" fill-opacity="0.0" stroke="#959692" stroke-opacity="1.00" stroke-width="0.3"><path d="
M 71.00 75.00 
C 71.17 75.43 71.23 76.84 71.00 77.00
C 71.50 77.00 72.84 76.77 73.00 77.00
C 72.07 75.47 71.77 73.83 72.00 72.00
C 70.54 72.27 71.09 74.00 71.00 75.00 Z"/>
</g>
<g fill="None" fill-opacity="0.0" stroke="#A0A6A7" stroke-opacity="1.00" stroke-width="0.3"><path d="
M 81.00 88.00 
C 81.36 84.60 82.04 79.49 82.00 76.00
C 81.64 78.97 81.00 83.46 81.00 88.00 Z"/>
</g>
<g fill="None" fill-opacity="0.0" stroke="#C6CDCD" stroke-opacity="1.00" stroke-width="0.3"><path d="
M 57.00 96.00 
C 57.00 96.00 56.00 96.00 56.00 96.00
C 56.00 100.84 55.78 104.74 59.75 107.25 C 63.72 109.75 67.08 110.55 64.00 106.00
C 63.21 105.21 61.77 104.71 61.00 104.00
C 60.57 103.84 59.69 106.87 59.00 102.00
C 58.27 99.93 59.55 97.14 59.00 95.00
C 60.26 95.08 59.56 97.06 61.00 97.00
C 60.76 95.15 61.80 94.11 62.00 93.00
C 62.00 92.00 62.00 91.00 62.00 90.00
C 62.00 88.04 61.80 85.95 62.00 84.00
C 62.15 82.57 62.48 78.82 64.00 78.00
C 62.28 79.32 62.11 77.98 61.00 77.00
C 56.82 83.91 59.83 93.83 57.00 101.00
C 56.92 99.34 57.10 97.66 57.00 96.00 Z"/>
</g>
<g fill="None" fill-opacity="0.0" stroke="#E4E5E7" stroke-opacity="1.00" stroke-width="0.3"><path d="
M 92.00 79.00 
C 91.00 83.73 90.72 88.71 92.00 93.00
C 95.33 92.79 92.30 95.45 91.00 96.00
C 93.03 96.19 94.14 94.32 95.00 97.00
C 99.40 93.54 90.80 78.19 101.00 79.00
C 100.49 77.42 98.28 78.02 97.00 78.00
C 96.50 77.99 95.50 78.00 95.00 78.00
C 94.19 78.21 93.54 79.76 92.00 79.00 Z"/>
</g>
<g fill="None" fill-opacity="0.0" stroke="#8C928C" stroke-opacity="1.00" stroke-width="0.3"><path d="
M 76.00 85.00 
C 76.08 85.50 77.32 87.66 78.00 88.00
C 77.30 84.73 79.43 82.23 79.00 79.00
C 78.00 79.00 77.00 79.00 76.00 79.00
C 75.91 80.99 76.12 83.01 76.00 85.00 Z"/>
</g>
<g fill="None" fill-opacity="0.0" stroke="#959692" stroke-opacity="1.00" stroke-width="0.3"><path d="
M 76.00 85.00 
C 75.81 88.24 76.85 92.50 75.00 95.00
C 75.00 95.50 75.00 96.00 75.00 96.00
C 75.00 96.50 75.00 97.50 75.00 98.00
C 78.36 95.67 75.88 101.26 78.00 102.00
C 79.44 99.24 78.81 92.91 79.22 90.22 C 79.63 87.53 81.81 80.36 79.00 79.00
C 79.43 82.23 77.30 84.73 78.00 88.00
C 77.32 87.66 76.08 85.50 76.00 85.00 Z"/>
</g>
<g fill="None" fill-opacity="0.0" stroke="#DEDFE1" stroke-opacity="1.00" stroke-width="0.3"><path d="
M 90.00 83.00 
C 89.96 83.50 90.00 84.00 90.00 84.00
C 90.00 87.29 89.70 90.73 90.00 94.00
C 90.35 93.77 91.00 94.00 91.00 94.00
C 91.35 93.97 92.08 93.26 92.00 93.00
C 90.72 88.71 91.00 83.73 92.00 79.00
C 90.59 80.50 90.20 80.73 90.00 83.00 Z"/>
</g>
<g fill="None" fill-opacity="0.0" stroke="#FEFFFF" stroke-opacity="1.00" stroke-width="0.3"><path d="
M 105.00 79.00 
C 100.01 80.41 102.21 89.86 101.80 94.75 C 101.40 99.65 101.49 102.52 102.00 108.00
C 106.45 101.07 104.44 88.47 105.00 79.00 Z"/>
</g>
<g fill="None" fill-opacity="0.0" stroke="#565758" stroke-opacity="1.00" stroke-width="0.3"><path d="
M 86.00 83.00 
C 87.86 82.67 88.20 82.09 88.00 80.00
C 87.16 81.27 84.64 81.35 86.00 83.00 Z"/>
</g>
<g fill="None" fill-opacity="0.0" stroke="#272729" stroke-opacity="1.00" stroke-width="0.3"><path d="
M 86.00 83.00 
C 86.00 83.00 85.78 83.62 86.00 84.00
C 87.57 84.64 88.66 83.30 90.00 83.00
C 90.36 82.18 88.14 80.45 88.00 80.00
C 88.20 82.09 87.86 82.67 86.00 83.00 Z"/>
</g>
<g fill="None" fill-opacity="0.0" stroke="#BBC2C2" stroke-opacity="1.00" stroke-width="0.3"><path d="
M 74.00 86.00 
C 74.05 86.15 75.00 86.00 75.00 86.00
C 75.00 84.33 75.00 82.67 75.00 81.00
C 75.00 81.00 74.05 81.14 74.00 81.00
C 74.13 82.64 74.00 84.35 74.00 86.00 Z"/>
</g>
<g fill="None" fill-opacity="0.0" stroke="#C6CDCD" stroke-opacity="1.00" stroke-width="0.3"><path d="
M 86.00 84.00 
C 88.00 92.22 87.12 102.29 86.00 110.00
C 86.99 109.90 88.02 110.13 89.00 110.00
C 88.78 109.64 89.00 109.00 89.00 109.00
C 87.97 107.61 88.95 106.35 89.00 105.00
C 88.59 102.03 88.76 99.84 90.00 97.00
C 90.18 96.58 90.00 96.00 90.00 96.00
C 90.07 95.64 91.32 94.36 91.00 94.00
C 91.00 94.00 90.35 93.77 90.00 94.00
C 88.43 95.05 88.78 85.65 90.00 84.00
C 90.00 84.00 89.96 83.50 90.00 83.00
C 88.66 83.30 87.57 84.64 86.00 84.00 Z"/>
</g>
<g fill="None" fill-opacity="0.0" stroke="#E2E6E1" stroke-opacity="1.00" stroke-width="0.3"><path d="
M 62.00 90.00 
C 62.49 88.02 61.91 85.64 62.00 84.00
C 61.80 85.95 62.00 88.04 62.00 90.00 Z"/>
</g>
<g fill="None" fill-opacity="0.0" stroke="#D3D4D6" stroke-opacity="1.00" stroke-width="0.3"><path d="
M 90.00 94.00 
C 89.70 90.73 90.00 87.29 90.00 84.00
C 88.78 85.65 88.43 95.05 90.00 94.00 Z"/>
</g>
<g fill="None" fill-opacity="0.0" stroke="#E2E6E1" stroke-opacity="1.00" stroke-width="0.3"><path d="
M 56.00 96.00 
C 56.00 96.00 57.00 96.00 57.00 96.00
C 56.80 92.70 57.00 89.31 57.00 86.00
C 56.74 88.69 56.00 92.58 56.00 96.00 Z"/>
</g>
<g fill="None" fill-opacity="0.0" stroke="#C6CDCD" stroke-opacity="1.00" stroke-width="0.3"><path d="
M 74.00 96.00 
C 74.00 96.04 75.00 96.00 75.00 96.00
C 75.00 96.00 75.00 95.50 75.00 95.00
C 75.00 92.00 75.00 89.00 75.00 86.00
C 75.00 86.00 74.05 86.15 74.00 86.00
C 74.00 89.33 73.93 92.67 74.00 96.00 Z"/>
</g>
<g fill="None" fill-opacity="0.0" stroke="#FEFFFF" stroke-opacity="1.00" stroke-width="0.3"><path d="
M 0.00 175.00 
L 78.00 175.00
C 35.79 170.32 -0.06 130.80 0.00 88.00
L 0.00 175.00 Z"/>
</g>
<g fill="None" fill-opacity="0.0" stroke="#FEFFFF" stroke-opacity="1.00" stroke-width="0.3"><path d="
M 98.00 175.00 
L 176.00 175.00
L 176.00 88.00
C 176.06 130.73 140.29 170.31 98.00 175.00 Z"/>
</g>
<g fill="None" fill-opacity="0.0" stroke="#D3D4D6" stroke-opacity="1.00" stroke-width="0.3"><path d="
M 61.00 97.00 
C 61.06 97.49 61.00 98.00 61.00 98.00
C 61.25 98.25 62.00 98.00 62.00 98.00
C 62.00 96.33 62.00 94.67 62.00 93.00
C 61.80 94.11 60.76 95.15 61.00 97.00 Z"/>
</g>
<g fill="None" fill-opacity="0.0" stroke="#A0A6A7" stroke-opacity="1.00" stroke-width="0.3"><path d="
M 80.00 98.00 
C 80.15 96.83 80.95 94.85 81.00 93.00
C 80.85 94.16 80.06 96.17 80.00 98.00 Z"/>
</g>
<g fill="None" fill-opacity="0.0" stroke="#5F6062" stroke-opacity="1.00" stroke-width="0.3"><path d="
M 91.00 94.00 
C 91.32 94.36 90.07 95.64 90.00 96.00
C 90.25 95.75 91.00 96.00 91.00 96.00
C 92.30 95.45 95.33 92.79 92.00 93.00
C 92.08 93.26 91.35 93.97 91.00 94.00 Z"/>
</g>
<g fill="None" fill-opacity="0.0" stroke="#CFD5D6" stroke-opacity="1.00" stroke-width="0.3"><path d="
M 59.00 102.00 
C 59.22 102.62 60.47 103.51 61.00 104.00
C 61.77 104.71 63.21 105.21 64.00 106.00
C 63.37 105.07 62.53 104.05 62.00 103.00
C 61.24 101.49 60.74 100.11 61.00 98.00
C 61.00 98.00 61.06 97.49 61.00 97.00
C 59.56 97.06 60.26 95.08 59.00 95.00
C 59.55 97.14 58.27 99.93 59.00 102.00 Z"/>
</g>
<g fill="None" fill-opacity="0.0" stroke="#5F6062" stroke-opacity="1.00" stroke-width="0.3"><path d="
M 91.00 96.00 
C 91.00 96.00 90.25 95.75 90.00 96.00
C 90.00 96.00 90.18 96.58 90.00 97.00
C 90.87 98.12 92.66 98.88 94.00 99.00
C 94.50 99.05 95.00 99.00 95.00 99.00
C 96.08 98.32 95.00 97.01 95.00 97.00
C 94.14 94.32 93.03 96.19 91.00 96.00 Z"/>
</g>
<g fill="None" fill-opacity="0.0" stroke="#E2E6E1" stroke-opacity="1.00" stroke-width="0.3"><path d="
M 75.00 103.00 
C 74.94 101.67 75.00 100.33 75.00 99.00
C 75.00 99.00 75.00 98.50 75.00 98.00
C 75.00 97.50 75.00 96.50 75.00 96.00
C 75.00 96.00 74.00 96.04 74.00 96.00
C 74.05 98.57 74.65 101.04 75.00 103.00 Z"/>
</g>
<g fill="None" fill-opacity="0.0" stroke="#DEDFE1" stroke-opacity="1.00" stroke-width="0.3"><path d="
M 89.00 105.00 
C 89.26 106.90 90.39 107.56 89.00 109.00
C 89.00 109.00 88.78 109.64 89.00 110.00
C 90.05 111.71 89.38 111.72 89.00 113.00
C 88.86 113.46 89.00 114.50 89.00 115.00
C 89.00 117.71 88.46 120.98 90.00 123.00
C 88.93 120.46 91.47 114.98 91.00 112.00 C 90.53 109.02 90.05 101.88 92.00 100.00
C 91.21 99.28 90.54 97.88 90.00 97.00
C 88.76 99.84 88.59 102.03 89.00 105.00 Z"/>
</g>
<g fill="None" fill-opacity="0.0" stroke="#7D7E80" stroke-opacity="1.00" stroke-width="0.3"><path d="
M 92.00 100.00 
C 92.27 100.25 93.00 100.00 93.00 100.00
C 93.35 99.97 93.74 99.12 94.00 99.00
C 92.66 98.88 90.87 98.12 90.00 97.00
C 90.54 97.88 91.21 99.28 92.00 100.00 Z"/>
</g>
<g fill="None" fill-opacity="0.0" stroke="#D7DEDA" stroke-opacity="1.00" stroke-width="0.3"><path d="
M 62.00 103.00 
C 61.62 101.57 62.00 99.49 62.00 98.00
C 62.00 98.00 61.25 98.25 61.00 98.00
C 60.74 100.11 61.24 101.49 62.00 103.00 Z"/>
</g>
<g fill="None" fill-opacity="0.0" stroke="#EFF0F2" stroke-opacity="1.00" stroke-width="0.3"><path d="
M 93.00 100.00 
C 93.45 104.97 89.84 123.11 94.00 125.00
C 96.20 122.02 97.99 101.89 95.00 99.00
C 95.00 99.00 94.50 99.05 94.00 99.00
C 93.74 99.12 93.35 99.97 93.00 100.00 Z"/>
</g>
<g fill="None" fill-opacity="0.0" stroke="#E4E5E7" stroke-opacity="1.00" stroke-width="0.3"><path d="
M 90.00 123.00 
C 90.22 123.29 91.66 124.71 92.00 125.00
C 92.24 125.21 93.93 125.85 94.00 126.00
C 94.00 126.00 94.19 125.09 94.00 125.00
C 89.84 123.11 93.45 104.97 93.00 100.00
C 93.00 100.00 92.27 100.25 92.00 100.00
C 90.05 101.88 90.53 109.02 91.00 112.00 C 91.47 114.98 88.93 120.46 90.00 123.00 Z"/>
</g>
<g fill="None" fill-opacity="0.0" stroke="#D3D4D6" stroke-opacity="1.00" stroke-width="0.3"><path d="
M 61.00 104.00 
C 60.47 103.51 59.22 102.62 59.00 102.00
C 59.69 106.87 60.57 103.84 61.00 104.00 Z"/>
</g>
<g fill="None" fill-opacity="0.0" stroke="#A0A6A7" stroke-opacity="1.00" stroke-width="0.3"><path d="
M 77.00 107.00 
C 76.85 108.19 77.59 109.51 79.00 109.00
C 78.70 107.10 79.77 105.72 80.00 104.00
C 79.75 104.84 77.94 106.47 77.00 107.00 Z"/>
</g>
<g fill="None" fill-opacity="0.0" stroke="#D3D4D6" stroke-opacity="1.00" stroke-width="0.3"><path d="
M 89.00 109.00 
C 90.39 107.56 89.26 106.90 89.00 105.00
C 88.95 106.35 87.97 107.61 89.00 109.00 Z"/>
</g>
<g fill="None" fill-opacity="0.0" stroke="#C6CDCD" stroke-opacity="1.00" stroke-width="0.3"><path d="
M 77.00 116.00 
C 76.92 114.04 76.30 112.39 76.00 111.00
C 76.17 112.67 76.84 114.89 77.00 116.00 Z"/>
</g>
<g fill="None" fill-opacity="0.0" stroke="#5B5B5D" stroke-opacity="1.00" stroke-width="0.3"><path d="
M 86.00 115.00 
C 86.00 114.96 87.00 115.00 87.00 115.00
C 87.50 115.00 88.75 115.25 89.00 115.00
C 89.00 114.50 88.86 113.46 89.00 113.00
C 88.80 109.71 86.86 113.73 86.00 115.00 Z"/>
</g>
<g fill="None" fill-opacity="0.0" stroke="#A0A6A7" stroke-opacity="1.00" stroke-width="0.3"><path d="
M 78.00 121.00 
C 78.08 120.81 79.69 120.76 80.00 121.00
C 80.63 118.08 78.97 115.74 79.00 113.00
C 77.22 114.70 78.00 118.48 78.00 121.00 Z"/>
</g>
<g fill="None" fill-opacity="0.0" stroke="#FEFFFF" stroke-opacity="1.00" stroke-width="0.3"><path d="
M 103.00 114.00 
C 96.23 120.36 100.14 133.68 98.00 142.00
C 106.91 138.26 99.10 122.20 103.00 114.00 Z"/>
</g>
<g fill="None" fill-opacity="0.0" stroke="#CDCED0" stroke-opacity="1.00" stroke-width="0.3"><path d="
M 87.00 115.00 
C 87.00 115.00 86.00 114.96 86.00 115.00
C 86.50 117.85 84.92 121.90 87.00 124.00
C 86.80 121.02 87.27 117.98 87.00 115.00 Z"/>
</g>
<g fill="None" fill-opacity="0.0" stroke="#999E9D" stroke-opacity="1.00" stroke-width="0.3"><path d="
M 77.00 136.00 
C 77.30 139.90 76.73 140.36 80.00 142.00
C 82.50 142.00 81.09 137.37 81.00 135.00
C 80.55 131.82 80.00 127.83 80.00 124.00
C 80.00 123.00 80.00 122.00 80.00 121.00
C 79.69 120.76 78.08 120.81 78.00 121.00
C 78.00 125.90 77.09 131.83 77.00 136.00 Z"/>
</g>
<g fill="None" fill-opacity="0.0" stroke="#A0A6A7" stroke-opacity="1.00" stroke-width="0.3"><path d="
M 81.00 135.00 
C 80.85 131.12 80.72 127.28 80.00 124.00
C 80.00 127.83 80.55 131.82 81.00 135.00 Z"/>
</g>
<g fill="None" fill-opacity="0.0" stroke="#4F4F51" stroke-opacity="1.00" stroke-width="0.3"><path d="
M 89.00 125.00 
C 91.09 125.02 90.70 126.22 92.00 127.00
C 92.71 127.04 93.74 128.65 94.00 127.00
C 94.00 127.00 94.00 126.50 94.00 126.00
C 93.93 125.85 92.24 125.21 92.00 125.00
C 90.19 124.13 90.43 124.44 89.00 125.00 Z"/>
</g>
<g fill="None" fill-opacity="0.0" stroke="#2B2C2D" stroke-opacity="1.00" stroke-width="0.3"><path d="
M 87.00 128.00 
C 87.01 127.66 87.65 127.11 88.00 127.00
C 88.56 126.83 91.52 126.71 92.00 127.00
C 90.70 126.22 91.09 125.02 89.00 125.00
C 85.99 126.18 86.92 125.77 87.00 128.00 Z"/>
</g>
<g fill="None" fill-opacity="0.0" stroke="#B7B8BA" stroke-opacity="1.00" stroke-width="0.3"><path d="
M 87.00 128.00 
C 86.99 128.37 88.77 129.67 89.00 130.00
C 90.62 130.48 92.18 129.85 92.00 128.00
C 89.77 129.45 89.42 128.04 88.00 127.00
C 87.65 127.11 87.01 127.66 87.00 128.00 Z"/>
</g>
<g fill="None" fill-opacity="0.0" stroke="#767678" stroke-opacity="1.00" stroke-width="0.3"><path d="
M 92.00 128.00 
C 91.95 127.50 92.00 127.00 92.00 127.00
C 91.52 126.71 88.56 126.83 88.00 127.00
C 89.42 128.04 89.77 129.45 92.00 128.00 Z"/>
</g>
<g fill="None" fill-opacity="0.0" stroke="#DEDFE1" stroke-opacity="1.00" stroke-width="0.3"><path d="
M 92.00 128.00 
C 92.18 129.85 90.62 130.48 89.00 130.00
C 89.45 130.65 89.71 131.28 90.00 132.00
C 90.62 133.55 88.95 132.91 87.00 133.00
C 87.00 133.50 87.00 134.00 87.00 134.00
C 88.56 134.94 90.13 135.19 92.00 135.00
C 92.35 131.67 96.72 130.39 94.00 127.00
C 93.74 128.65 92.71 127.04 92.00 127.00
C 92.00 127.00 91.95 127.50 92.00 128.00 Z"/>
</g>
<g fill="None" fill-opacity="0.0" stroke="#D3D4D6" stroke-opacity="1.00" stroke-width="0.3"><path d="
M 87.00 132.00 
C 87.46 131.34 90.13 131.31 90.00 132.00
C 89.71 131.28 89.45 130.65 89.00 130.00
C 88.77 129.67 86.99 128.37 87.00 128.00
C 87.04 128.93 86.56 131.21 87.00 132.00 Z"/>
</g>
<g fill="None" fill-opacity="0.0" stroke="#CDCED0" stroke-opacity="1.00" stroke-width="0.3"><path d="
M 86.00 134.00 
C 86.09 134.20 87.00 134.00 87.00 134.00
C 87.00 134.00 87.00 133.50 87.00 133.00
C 87.00 132.50 87.00 132.00 87.00 132.00
C 85.56 132.06 86.26 130.08 85.00 130.00
C 84.67 131.57 85.38 132.71 86.00 134.00 Z"/>
</g>
<g fill="None" fill-opacity="0.0" stroke="#BFC0C2" stroke-opacity="1.00" stroke-width="0.3"><path d="
M 87.00 132.00 
C 87.00 132.00 87.00 132.50 87.00 133.00
C 88.95 132.91 90.62 133.55 90.00 132.00
C 90.13 131.31 87.46 131.34 87.00 132.00 Z"/>
</g>
<g fill="None" fill-opacity="0.0" stroke="#676869" stroke-opacity="1.00" stroke-width="0.3"><path d="
M 85.00 136.00 
C 85.50 136.00 86.00 136.00 86.00 136.00
C 87.05 134.87 86.09 135.55 86.00 134.00
C 85.42 133.42 83.81 132.94 83.00 133.00
C 83.22 133.82 84.37 135.43 85.00 136.00 Z"/>
</g>
<g fill="None" fill-opacity="0.0" stroke="#B7B8BA" stroke-opacity="1.00" stroke-width="0.3"><path d="
M 93.00 135.00 
C 93.35 135.03 94.06 135.71 94.00 136.00
C 95.36 135.58 96.33 134.20 97.00 133.00
C 95.32 132.81 94.01 134.09 93.00 135.00 Z"/>
</g>
<g fill="None" fill-opacity="0.0" stroke="#9C9D9F" stroke-opacity="1.00" stroke-width="0.3"><path d="
M 86.00 136.00 
C 86.25 136.25 86.00 137.00 86.00 137.00
C 86.25 137.25 87.00 137.00 87.00 137.00
C 88.33 137.00 89.67 137.00 91.00 137.00
C 91.50 137.00 92.00 137.00 92.00 137.00
C 92.50 137.00 93.00 137.00 93.00 137.00
C 93.26 136.88 93.67 136.18 94.00 136.00
C 94.06 135.71 93.35 135.03 93.00 135.00
C 93.00 135.00 92.49 134.95 92.00 135.00
C 90.13 135.19 88.56 134.94 87.00 134.00
C 87.00 134.00 86.09 134.20 86.00 134.00
C 86.09 135.55 87.05 134.87 86.00 136.00 Z"/>
</g>
<g fill="None" fill-opacity="0.0" stroke="#BBC2C2" stroke-opacity="1.00" stroke-width="0.3"><path d="
M 83.00 141.00 
C 83.22 141.30 83.88 141.74 84.00 142.00
C 84.00 140.14 83.62 137.82 84.00 136.00
C 82.38 134.92 82.69 139.35 83.00 141.00 Z"/>
</g>
<g fill="None" fill-opacity="0.0" stroke="#BFC0C2" stroke-opacity="1.00" stroke-width="0.3"><path d="
M 84.00 142.00 
C 84.00 142.00 83.75 142.75 84.00 143.00
C 84.00 143.00 84.50 143.00 85.00 143.00
C 85.50 143.00 86.00 143.00 86.00 143.00
C 86.38 141.18 86.00 138.86 86.00 137.00
C 86.00 137.00 86.25 136.25 86.00 136.00
C 86.00 136.00 85.50 136.00 85.00 136.00
C 85.00 136.00 84.35 136.23 84.00 136.00
C 83.62 137.82 84.00 140.14 84.00 142.00 Z"/>
</g>
<g fill="None" fill-opacity="0.0" stroke="#CDCED0" stroke-opacity="1.00" stroke-width="0.3"><path d="
M 86.00 143.00 
C 87.32 142.04 87.39 138.66 87.00 137.00
C 87.00 137.00 86.25 137.25 86.00 137.00
C 86.00 138.86 86.38 141.18 86.00 143.00 Z"/>
</g>
<g fill="None" fill-opacity="0.0" stroke="#D3D4D6" stroke-opacity="1.00" stroke-width="0.3"><path d="
M 86.00 143.00 
C 86.00 143.00 85.50 143.00 85.00 143.00
C 86.01 143.94 86.37 144.20 88.00 144.00
C 87.58 142.26 87.61 139.02 89.00 138.00
C 89.27 137.80 90.61 137.26 91.00 137.00
C 89.67 137.00 88.33 137.00 87.00 137.00
C 87.39 138.66 87.32 142.04 86.00 143.00 Z"/>
</g>
<g fill="None" fill-opacity="0.0" stroke="#E4E5E7" stroke-opacity="1.00" stroke-width="0.3"><path d="
M 89.00 138.00 
C 88.19 139.05 89.28 142.64 89.00 144.00
C 90.24 144.00 91.79 144.25 93.00 144.00
C 90.28 143.33 90.89 138.87 92.00 137.00
C 92.00 137.00 91.50 137.00 91.00 137.00
C 90.61 137.26 89.27 137.80 89.00 138.00 Z"/>
</g>
<g fill="None" fill-opacity="0.0" stroke="#EFF0F2" stroke-opacity="1.00" stroke-width="0.3"><path d="
M 93.00 144.00 
C 95.50 143.49 94.31 138.93 93.00 137.00
C 93.00 137.00 92.50 137.00 92.00 137.00
C 90.89 138.87 90.28 143.33 93.00 144.00 Z"/>
</g>
<g fill="None" fill-opacity="0.0" stroke="#DEDFE1" stroke-opacity="1.00" stroke-width="0.3"><path d="
M 88.00 144.00 
C 88.00 144.00 88.50 144.00 89.00 144.00
C 89.28 142.64 88.19 139.05 89.00 138.00
C 87.61 139.02 87.58 142.26 88.00 144.00 Z"/>
</g>
<g fill="#FEFFFF" fill-opacity="1.00" stroke="None">
<path d="
M 0.00 87.00 
C -0.05 44.51 35.24 5.34 77.00 0.00
L 0.00 0.00
L 0.00 87.00 Z"/>
</g>
<g fill="#F5F6F8" fill-opacity="1.00" stroke="None">
<path d="
M 0.00 87.00 
L 0.00 88.00
C -0.06 130.80 35.79 170.32 78.00 175.00
L 98.00 175.00
C 140.29 170.31 176.06 130.73 176.00 88.00
L 176.00 87.00
C 175.98 44.26 140.27 4.60 98.00 0.00
L 77.00 0.00
C 35.24 5.34 -0.05 44.51 0.00 87.00
M 98.00 35.00 
C 97.41 37.05 96.18 38.21 95.00 40.00
C 92.21 44.24 89.94 48.52 91.00 54.00
C 94.00 54.00 97.00 54.00 100.00 54.00
C 100.50 54.00 101.52 54.10 102.00 54.00
C 102.62 53.87 103.74 53.29 105.00 54.00
C 107.89 55.63 106.25 59.41 105.00 62.00
C 106.82 65.57 105.18 73.64 106.00 77.00
C 102.99 73.19 101.83 68.72 100.00 62.00
C 101.33 62.00 102.67 62.00 104.00 62.00
C 103.75 61.75 104.00 61.00 104.00 61.00
C 102.12 60.77 101.31 61.34 100.00 60.00
C 99.75 60.25 99.00 60.00 99.00 60.00
C 100.45 62.25 98.05 62.44 96.00 62.00
C 96.50 62.52 96.75 65.78 96.00 66.00
C 96.27 66.44 96.81 68.36 97.00 69.00
C 97.66 71.16 97.74 75.54 97.00 78.00
C 98.28 78.02 100.49 77.42 101.00 79.00
C 90.80 78.19 99.40 93.54 95.00 97.00
C 95.00 97.01 96.08 98.32 95.00 99.00
C 97.99 101.89 96.20 122.02 94.00 125.00
C 94.19 125.09 94.00 126.00 94.00 126.00
C 94.00 126.50 94.00 127.00 94.00 127.00
C 96.72 130.39 92.35 131.67 92.00 135.00
C 92.49 134.95 93.00 135.00 93.00 135.00
C 94.01 134.09 95.32 132.81 97.00 133.00
C 96.33 134.20 95.36 135.58 94.00 136.00
C 93.67 136.18 93.26 136.88 93.00 137.00
C 94.31 138.93 95.50 143.49 93.00 144.00
C 91.79 144.25 90.24 144.00 89.00 144.00
C 88.50 144.00 88.00 144.00 88.00 144.00
C 86.37 144.20 86.01 143.94 85.00 143.00
C 84.50 143.00 84.00 143.00 84.00 143.00
C 82.01 143.26 81.35 142.68 80.00 142.00
C 76.73 140.36 77.30 139.90 77.00 136.00
C 76.49 129.38 77.27 122.64 77.00 116.00
C 76.84 114.89 76.17 112.67 76.00 111.00
C 75.71 108.18 75.12 105.87 75.00 103.00
C 74.65 101.04 74.05 98.57 74.00 96.00
C 73.93 92.67 74.00 89.33 74.00 86.00
C 74.00 84.35 74.13 82.64 74.00 81.00
C 73.86 79.30 74.07 79.15 73.00 78.00
C 70.07 78.26 66.94 78.06 64.00 78.00
C 62.48 78.82 62.15 82.57 62.00 84.00
C 61.91 85.64 62.49 88.02 62.00 90.00
C 62.00 91.00 62.00 92.00 62.00 93.00
C 62.00 94.67 62.00 96.33 62.00 98.00
C 62.00 99.49 61.62 101.57 62.00 103.00
C 62.53 104.05 63.37 105.07 64.00 106.00
C 67.08 110.55 63.72 109.75 59.75 107.25 C 55.78 104.74 56.00 100.84 56.00 96.00
C 56.00 92.58 56.74 88.69 57.00 86.00
C 57.00 74.06 58.96 72.81 70.00 71.00
C 70.49 70.92 71.00 71.00 71.00 71.00
C 71.50 71.00 72.00 71.00 72.00 71.00
C 73.92 68.62 72.33 65.26 74.00 63.00
C 74.22 62.70 75.02 62.09 75.00 62.00
C 74.54 59.91 72.97 59.95 72.00 58.00
C 73.83 57.77 75.47 58.07 77.00 59.00
C 79.85 58.63 79.22 56.62 81.00 58.00
C 81.40 57.80 82.00 58.00 82.00 58.00
C 82.25 57.75 82.00 57.00 82.00 57.00
C 83.34 55.96 86.07 55.19 88.00 55.00
C 87.65 53.29 87.84 50.74 88.00 49.00
C 88.16 47.26 88.39 45.62 89.00 44.00
C 90.11 41.06 92.92 36.28 96.00 35.00
C 96.56 33.63 97.12 31.69 99.00 32.00
C 98.43 32.94 97.85 33.82 98.00 35.00
M 105.00 79.00 
C 104.44 88.47 106.45 101.07 102.00 108.00
C 101.49 102.52 101.40 99.65 101.80 94.75 C 102.21 89.86 100.01 80.41 105.00 79.00
M 103.00 114.00 
C 99.10 122.20 106.91 138.26 98.00 142.00
C 100.14 133.68 96.23 120.36 103.00 114.00 Z"/>
</g>
<g fill="#FEFFFF" fill-opacity="1.00" stroke="None">
<path d="
M 176.00 87.00 
L 176.00 0.00
L 98.00 0.00
C 140.27 4.60 175.98 44.26 176.00 87.00 Z"/>
</g>
<g fill="#C2C1B9" fill-opacity="1.00" stroke="None">
<path d="
M 96.00 35.00 
C 95.83 35.43 96.00 36.00 96.00 36.00
C 96.31 35.74 97.86 35.23 98.00 35.00
C 97.85 33.82 98.43 32.94 99.00 32.00
C 97.12 31.69 96.56 33.63 96.00 35.00 Z"/>
</g>
<g fill="#BEBBB4" fill-opacity="1.00" stroke="None">
<path d="
M 89.00 44.00 
C 88.99 44.15 89.95 44.65 90.00 45.00
C 89.98 45.06 90.91 43.19 91.00 43.00
C 92.18 40.47 94.33 38.19 96.00 36.00
C 96.00 36.00 95.83 35.43 96.00 35.00
C 92.92 36.28 90.11 41.06 89.00 44.00 Z"/>
</g>
<g fill="#DCDDD8" fill-opacity="1.00" stroke="None">
<path d="
M 96.00 36.00 
C 94.33 38.19 92.18 40.47 91.00 43.00
C 91.74 41.84 94.08 40.95 95.00 40.00
C 96.18 38.21 97.41 37.05 98.00 35.00
C 97.86 35.23 96.31 35.74 96.00 36.00 Z"/>
</g>
<g fill="#E2E6E1" fill-opacity="1.00" stroke="None">
<path d="
M 91.00 43.00 
C 90.91 43.19 89.98 45.06 90.00 45.00
C 90.37 47.55 90.00 50.42 90.00 53.00
C 90.00 54.39 89.55 56.70 90.00 58.00
C 90.49 58.08 91.00 58.00 91.00 58.00
C 91.50 58.00 92.00 58.00 92.00 58.00
C 92.50 58.00 93.00 58.00 93.00 58.00
C 93.73 55.27 97.78 56.10 100.00 54.00
C 97.00 54.00 94.00 54.00 91.00 54.00
C 89.94 48.52 92.21 44.24 95.00 40.00
C 94.08 40.95 91.74 41.84 91.00 43.00 Z"/>
</g>
<g fill="#AFADA4" fill-opacity="1.00" stroke="None">
<path d="
M 88.00 49.00 
C 88.07 49.83 89.05 51.49 89.00 53.00
C 89.34 52.77 90.00 53.00 90.00 53.00
C 90.00 50.42 90.37 47.55 90.00 45.00
C 89.95 44.65 88.99 44.15 89.00 44.00
C 88.39 45.62 88.16 47.26 88.00 49.00 Z"/>
</g>
<g fill="#949994" fill-opacity="1.00" stroke="None">
<path d="
M 88.00 55.00 
C 88.25 54.75 89.00 55.00 89.00 55.00
C 89.00 54.50 88.98 53.50 89.00 53.00
C 89.05 51.49 88.07 49.83 88.00 49.00
C 87.84 50.74 87.65 53.29 88.00 55.00 Z"/>
</g>
<g fill="#BBC2C2" fill-opacity="1.00" stroke="None">
<path d="
M 89.00 55.00 
C 89.01 55.97 88.60 57.77 90.00 58.00
C 89.55 56.70 90.00 54.39 90.00 53.00
C 90.00 53.00 89.34 52.77 89.00 53.00
C 88.98 53.50 89.00 54.50 89.00 55.00 Z"/>
</g>
<g fill="#E8EFEF" fill-opacity="1.00" stroke="None">
<path d="
M 102.00 54.00 
C 102.23 54.34 102.00 55.00 102.00 55.00
C 102.00 55.31 102.21 57.87 102.00 58.00
C 103.07 58.28 104.02 58.36 105.00 59.00
C 105.00 57.33 105.00 55.67 105.00 54.00
C 103.74 53.29 102.62 53.87 102.00 54.00 Z"/>
</g>
<g fill="#D7DEDA" fill-opacity="1.00" stroke="None">
<path d="
M 93.00 58.00 
C 95.11 58.23 98.31 58.41 100.00 57.00
C 100.91 55.27 99.88 55.70 102.00 55.00
C 102.00 55.00 102.23 54.34 102.00 54.00
C 101.52 54.10 100.50 54.00 100.00 54.00
C 97.78 56.10 93.73 55.27 93.00 58.00 Z"/>
</g>
<g fill="#D7DEDA" fill-opacity="1.00" stroke="None">
<path d="
M 102.00 58.00 
C 101.69 58.20 101.26 58.88 101.00 59.00
C 102.54 59.16 105.09 59.67 104.00 61.00
C 104.00 61.00 103.75 61.75 104.00 62.00
C 104.49 62.07 105.00 62.00 105.00 62.00
C 106.25 59.41 107.89 55.63 105.00 54.00
C 105.00 55.67 105.00 57.33 105.00 59.00
C 104.02 58.36 103.07 58.28 102.00 58.00 Z"/>
</g>
<g fill="#C6CDCD" fill-opacity="1.00" stroke="None">
<path d="
M 82.00 57.00 
C 83.94 56.84 86.29 56.96 88.00 56.00
C 87.95 55.50 88.00 55.00 88.00 55.00
C 86.07 55.19 83.34 55.96 82.00 57.00 Z"/>
</g>
<g fill="#999E9D" fill-opacity="1.00" stroke="None">
<path d="
M 88.00 56.00 
C 88.21 58.13 86.66 57.95 85.00 58.00
C 85.25 58.27 85.00 59.00 85.00 59.00
C 86.82 60.74 88.10 60.36 90.00 60.00
C 86.91 59.65 89.68 58.51 91.00 58.00
C 91.00 58.00 90.49 58.08 90.00 58.00
C 88.60 57.77 89.01 55.97 89.00 55.00
C 89.00 55.00 88.25 54.75 88.00 55.00
C 88.00 55.00 87.95 55.50 88.00 56.00 Z"/>
</g>
<g fill="#B5B6B2" fill-opacity="1.00" stroke="None">
<path d="
M 100.00 57.00 
C 99.89 57.21 98.75 58.77 99.00 59.00
C 99.50 59.00 100.00 59.00 100.00 59.00
C 100.50 59.00 101.00 59.00 101.00 59.00
C 101.26 58.88 101.69 58.20 102.00 58.00
C 102.21 57.87 102.00 55.31 102.00 55.00
C 99.88 55.70 100.91 55.27 100.00 57.00 Z"/>
</g>
<g fill="#E2E6E1" fill-opacity="1.00" stroke="None">
<path d="
M 82.00 57.00 
C 82.00 57.00 82.25 57.75 82.00 58.00
C 82.99 58.00 84.01 58.07 85.00 58.00
C 86.66 57.95 88.21 58.13 88.00 56.00
C 86.29 56.96 83.94 56.84 82.00 57.00 Z"/>
</g>
<g fill="#9C9D9F" fill-opacity="1.00" stroke="None">
<path d="
M 77.00 59.00 
C 78.04 59.41 78.45 59.93 80.00 60.00
C 80.42 59.79 80.72 58.14 81.00 58.00
C 79.22 56.62 79.85 58.63 77.00 59.00 Z"/>
</g>
<g fill="#B9B8B6" fill-opacity="1.00" stroke="None">
<path d="
M 93.00 58.00 
C 93.00 58.00 92.50 58.00 92.00 58.00
C 92.26 58.12 92.65 58.97 93.00 59.00
C 93.50 59.05 94.00 59.00 94.00 59.00
C 95.67 59.00 97.33 59.00 99.00 59.00
C 98.75 58.77 99.89 57.21 100.00 57.00
C 98.31 58.41 95.11 58.23 93.00 58.00 Z"/>
</g>
<g fill="#BBC2C2" fill-opacity="1.00" stroke="None">
<path d="
M 75.00 62.00 
C 75.30 62.24 76.50 62.00 77.00 62.00
C 78.65 61.21 80.73 60.55 83.00 61.00
C 83.70 63.72 84.80 64.83 87.00 66.00
C 87.50 66.00 88.00 66.00 88.00 66.00
C 88.39 66.00 90.76 65.74 91.00 66.00
C 90.20 65.46 90.03 65.42 89.00 65.00
C 86.89 64.14 86.07 62.71 89.00 62.00
C 89.27 61.75 90.00 62.00 90.00 62.00
C 90.89 61.51 92.38 60.98 93.00 60.00
C 92.69 60.33 90.48 59.91 90.00 60.00
C 88.10 60.36 86.82 60.74 85.00 59.00
C 83.94 60.27 81.46 60.06 80.00 60.00
C 78.45 59.93 78.04 59.41 77.00 59.00
C 75.47 58.07 73.83 57.77 72.00 58.00
C 72.97 59.95 74.54 59.91 75.00 62.00 Z"/>
</g>
<g fill="#767678" fill-opacity="1.00" stroke="None">
<path d="
M 80.00 60.00 
C 81.46 60.06 83.94 60.27 85.00 59.00
C 85.00 59.00 85.25 58.27 85.00 58.00
C 84.01 58.07 82.99 58.00 82.00 58.00
C 82.00 58.00 81.40 57.80 81.00 58.00
C 80.72 58.14 80.42 59.79 80.00 60.00 Z"/>
</g>
<g fill="#BBC2C2" fill-opacity="1.00" stroke="None">
<path d="
M 90.00 60.00 
C 90.48 59.91 92.69 60.33 93.00 60.00
C 93.23 59.64 93.00 59.00 93.00 59.00
C 92.65 58.97 92.26 58.12 92.00 58.00
C 92.00 58.00 91.50 58.00 91.00 58.00
C 89.68 58.51 86.91 59.65 90.00 60.00 Z"/>
</g>
<g fill="#CFD5D6" fill-opacity="1.00" stroke="None">
<path d="
M 93.00 60.00 
C 92.38 60.98 90.89 61.51 90.00 62.00
C 91.20 63.72 91.00 64.10 93.00 65.00
C 92.54 64.08 92.94 62.30 94.00 62.00
C 94.46 61.87 95.84 62.23 96.00 62.00
C 96.23 61.66 96.00 61.00 96.00 61.00
C 95.45 60.42 94.53 59.51 94.00 59.00
C 94.00 59.00 93.50 59.05 93.00 59.00
C 93.00 59.00 93.23 59.64 93.00 60.00 Z"/>
</g>
<g fill="#C6CDCD" fill-opacity="1.00" stroke="None">
<path d="
M 96.00 61.00 
C 96.50 60.69 98.30 60.26 99.00 60.00
C 99.00 60.00 99.75 60.25 100.00 60.00
C 100.25 59.75 100.00 59.00 100.00 59.00
C 100.00 59.00 99.50 59.00 99.00 59.00
C 97.33 59.00 95.67 59.00 94.00 59.00
C 94.53 59.51 95.45 60.42 96.00 61.00 Z"/>
</g>
<g fill="#BBC2C2" fill-opacity="1.00" stroke="None">
<path d="
M 100.00 60.00 
C 101.31 61.34 102.12 60.77 104.00 61.00
C 105.09 59.67 102.54 59.16 101.00 59.00
C 101.00 59.00 100.50 59.00 100.00 59.00
C 100.00 59.00 100.25 59.75 100.00 60.00 Z"/>
</g>
<g fill="#E4E5E7" fill-opacity="1.00" stroke="None">
<path d="
M 96.00 61.00 
C 96.00 61.00 96.23 61.66 96.00 62.00
C 98.05 62.44 100.45 62.25 99.00 60.00
C 98.30 60.26 96.50 60.69 96.00 61.00 Z"/>
</g>
<g fill="#A0A6A7" fill-opacity="1.00" stroke="None">
<path d="
M 77.00 62.00 
C 77.50 62.00 78.50 62.00 79.00 62.00
C 79.50 62.00 80.00 62.00 80.00 62.00
C 80.50 62.00 81.00 62.00 81.00 62.00
C 82.47 62.75 82.08 65.51 82.00 67.00
C 82.45 65.93 85.11 65.94 86.00 66.00
C 86.50 66.04 87.00 66.00 87.00 66.00
C 84.80 64.83 83.70 63.72 83.00 61.00
C 80.73 60.55 78.65 61.21 77.00 62.00 Z"/>
</g>
<g fill="#959692" fill-opacity="1.00" stroke="None">
<path d="
M 74.00 63.00 
C 73.65 64.48 73.69 67.51 74.00 69.00
C 74.26 68.75 75.00 69.00 75.00 69.00
C 75.20 67.53 75.63 63.30 75.00 62.00
C 75.02 62.09 74.22 62.70 74.00 63.00 Z"/>
</g>
<g fill="#858986" fill-opacity="1.00" stroke="None">
<path d="
M 75.00 69.00 
C 75.85 69.57 75.67 69.90 77.00 70.00
C 77.50 70.04 78.50 70.00 79.00 70.00
C 79.50 70.00 80.00 70.00 80.00 70.00
C 78.86 67.76 78.53 64.58 79.00 62.00
C 78.50 62.00 77.50 62.00 77.00 62.00
C 76.50 62.00 75.30 62.24 75.00 62.00
C 75.63 63.30 75.20 67.53 75.00 69.00 Z"/>
</g>
<g fill="#959692" fill-opacity="1.00" stroke="None">
<path d="
M 80.00 70.00 
C 81.03 69.90 80.90 68.72 81.00 68.00
C 80.92 66.65 79.99 64.04 80.00 62.00
C 80.00 62.00 79.50 62.00 79.00 62.00
C 78.53 64.58 78.86 67.76 80.00 70.00 Z"/>
</g>
<g fill="#949994" fill-opacity="1.00" stroke="None">
<path d="
M 81.00 68.00 
C 81.24 66.35 81.34 63.63 81.00 62.00
C 81.00 62.00 80.50 62.00 80.00 62.00
C 79.99 64.04 80.92 66.65 81.00 68.00 Z"/>
</g>
<g fill="#999E9D" fill-opacity="1.00" stroke="None">
<path d="
M 81.00 68.00 
C 80.90 68.72 81.03 69.90 80.00 70.00
C 80.00 70.00 79.50 70.00 79.00 70.00
C 80.13 72.24 80.03 73.30 80.00 76.00 C 79.97 78.70 75.93 77.18 75.00 78.00
C 74.92 78.98 75.00 80.01 75.00 81.00
C 75.00 82.67 75.00 84.33 75.00 86.00
C 75.00 89.00 75.00 92.00 75.00 95.00
C 76.85 92.50 75.81 88.24 76.00 85.00
C 76.12 83.01 75.91 80.99 76.00 79.00
C 77.00 79.00 78.00 79.00 79.00 79.00
C 81.81 80.36 79.63 87.53 79.22 90.22 C 78.81 92.91 79.44 99.24 78.00 102.00
C 75.88 101.26 78.36 95.67 75.00 98.00
C 75.00 98.50 75.00 99.00 75.00 99.00
C 76.04 101.20 75.67 104.69 77.00 107.00
C 77.94 106.47 79.75 104.84 80.00 104.00
C 80.26 102.06 79.93 99.96 80.00 98.00
C 80.06 96.17 80.85 94.16 81.00 93.00
C 81.05 91.34 81.00 89.66 81.00 88.00
C 81.00 83.46 81.64 78.97 82.00 76.00
C 81.97 73.25 81.45 71.31 82.00 69.00
C 82.11 68.53 81.97 67.50 82.00 67.00
C 82.08 65.51 82.47 62.75 81.00 62.00
C 81.34 63.63 81.24 66.35 81.00 68.00 Z"/>
</g>
<g fill="#C6CDCD" fill-opacity="1.00" stroke="None">
<path d="
M 89.00 65.00 
C 88.90 64.84 88.88 62.11 89.00 62.00
C 86.07 62.71 86.89 64.14 89.00 65.00 Z"/>
</g>
<g fill="#CFD5D6" fill-opacity="1.00" stroke="None">
<path d="
M 89.00 65.00 
C 90.03 65.42 90.20 65.46 91.00 66.00
C 91.25 65.75 92.00 66.00 92.00 66.00
C 92.50 66.00 93.00 66.00 93.00 66.00
C 93.50 66.00 94.00 66.00 94.00 66.00
C 93.74 65.88 93.34 65.15 93.00 65.00
C 91.00 64.10 91.20 63.72 90.00 62.00
C 90.00 62.00 89.27 61.75 89.00 62.00
C 88.88 62.11 88.90 64.84 89.00 65.00 Z"/>
</g>
<g fill="#E2E6E1" fill-opacity="1.00" stroke="None">
<path d="
M 93.00 65.00 
C 93.34 65.15 93.74 65.88 94.00 66.00
C 94.41 66.19 95.00 66.00 95.00 66.00
C 94.98 65.92 94.36 61.70 94.00 62.00
C 92.94 62.30 92.54 64.08 93.00 65.00 Z"/>
</g>
<g fill="#EFF0F2" fill-opacity="1.00" stroke="None">
<path d="
M 95.00 66.00 
C 95.50 66.00 96.00 66.00 96.00 66.00
C 96.75 65.78 96.50 62.52 96.00 62.00
C 95.84 62.23 94.46 61.87 94.00 62.00
C 94.36 61.70 94.98 65.92 95.00 66.00 Z"/>
</g>
<g fill="#FEFFFF" fill-opacity="1.00" stroke="None">
<path d="
M 105.00 62.00 
C 105.00 62.00 104.49 62.07 104.00 62.00
C 102.67 62.00 101.33 62.00 100.00 62.00
C 101.83 68.72 102.99 73.19 106.00 77.00
C 105.18 73.64 106.82 65.57 105.00 62.00 Z"/>
</g>
<g fill="#CFD5D6" fill-opacity="1.00" stroke="None">
<path d="
M 72.00 71.00 
C 73.22 70.81 73.35 69.63 74.00 69.00
C 73.69 67.51 73.65 64.48 74.00 63.00
C 72.33 65.26 73.92 68.62 72.00 71.00 Z"/>
</g>
<g fill="#2B2C2D" fill-opacity="1.00" stroke="None">
<path d="
M 82.00 67.00 
C 81.97 67.50 82.11 68.53 82.00 69.00
C 82.85 68.60 83.26 68.44 84.00 68.00
C 85.44 67.14 85.24 68.12 86.00 66.00
C 85.11 65.94 82.45 65.93 82.00 67.00 Z"/>
</g>
<g fill="#676869" fill-opacity="1.00" stroke="None">
<path d="
M 84.00 68.00 
C 84.21 68.26 84.75 68.91 85.00 69.00
C 85.38 68.82 87.68 68.59 87.00 69.00
C 87.05 68.58 88.07 68.03 88.00 67.00
C 87.97 66.50 88.00 66.00 88.00 66.00
C 88.00 66.00 87.50 66.00 87.00 66.00
C 87.00 66.00 86.50 66.04 86.00 66.00
C 85.24 68.12 85.44 67.14 84.00 68.00 Z"/>
</g>
<g fill="#3F3F41" fill-opacity="1.00" stroke="None">
<path d="
M 88.00 67.00 
C 88.58 67.87 88.64 67.81 89.00 69.00
C 89.20 69.24 90.00 69.00 90.00 69.00
C 90.08 68.90 90.83 67.26 91.00 67.00
C 91.23 66.65 91.00 66.00 91.00 66.00
C 90.76 65.74 88.39 66.00 88.00 66.00
C 88.00 66.00 87.97 66.50 88.00 67.00 Z"/>
</g>
<g fill="#717173" fill-opacity="1.00" stroke="None">
<path d="
M 91.00 67.00 
C 91.03 67.05 91.74 66.12 92.00 66.00
C 92.00 66.00 91.25 65.75 91.00 66.00
C 91.00 66.00 91.23 66.65 91.00 67.00 Z"/>
</g>
<g fill="#8E8D8C" fill-opacity="1.00" stroke="None">
<path d="
M 91.00 67.00 
C 90.83 67.26 90.08 68.90 90.00 69.00
C 90.03 69.13 91.00 69.00 91.00 69.00
C 91.50 69.00 92.00 69.00 92.00 69.00
C 93.04 68.43 92.54 66.73 93.00 66.00
C 93.00 66.00 92.50 66.00 92.00 66.00
C 91.74 66.12 91.03 67.05 91.00 67.00 Z"/>
</g>
<g fill="#5F6062" fill-opacity="1.00" stroke="None">
<path d="
M 92.00 69.00 
C 92.50 69.00 93.00 69.00 93.00 69.00
C 93.50 69.00 94.50 69.00 95.00 69.00
C 93.98 68.60 94.39 66.63 94.00 66.00
C 94.00 66.00 93.50 66.00 93.00 66.00
C 92.54 66.73 93.04 68.43 92.00 69.00 Z"/>
</g>
<g fill="#9B9A99" fill-opacity="1.00" stroke="None">
<path d="
M 95.00 69.00 
C 95.50 69.00 96.66 69.23 97.00 69.00
C 96.81 68.36 96.27 66.44 96.00 66.00
C 96.00 66.00 95.50 66.00 95.00 66.00
C 95.00 66.00 94.41 66.19 94.00 66.00
C 94.39 66.63 93.98 68.60 95.00 69.00 Z"/>
</g>
<g fill="#BBC2C2" fill-opacity="1.00" stroke="None">
<path d="
M 87.00 69.00 
C 86.41 73.73 89.98 77.03 88.00 80.00
C 88.14 80.45 90.36 82.18 90.00 83.00
C 90.20 80.73 90.59 80.50 92.00 79.00
C 91.73 78.87 91.24 78.26 91.00 78.00
C 89.30 76.16 89.78 71.61 89.00 69.00
C 88.64 67.81 88.58 67.87 88.00 67.00
C 88.07 68.03 87.05 68.58 87.00 69.00 Z"/>
</g>
<g fill="#AAAEAB" fill-opacity="1.00" stroke="None">
<path d="
M 82.00 69.00 
C 81.45 71.31 81.97 73.25 82.00 76.00
C 82.04 79.49 81.36 84.60 81.00 88.00
C 81.00 89.66 81.05 91.34 81.00 93.00
C 80.95 94.85 80.15 96.83 80.00 98.00
C 79.93 99.96 80.26 102.06 80.00 104.00
C 79.77 105.72 78.70 107.10 79.00 109.00
C 77.59 109.51 76.85 108.19 77.00 107.00
C 75.67 104.69 76.04 101.20 75.00 99.00
C 75.00 100.33 74.94 101.67 75.00 103.00
C 75.12 105.87 75.71 108.18 76.00 111.00
C 76.30 112.39 76.92 114.04 77.00 116.00
C 77.27 122.64 76.49 129.38 77.00 136.00
C 77.09 131.83 78.00 125.90 78.00 121.00
C 78.00 118.48 77.22 114.70 79.00 113.00
C 78.97 115.74 80.63 118.08 80.00 121.00
C 80.00 122.00 80.00 123.00 80.00 124.00
C 80.72 127.28 80.85 131.12 81.00 135.00
C 81.09 137.37 82.50 142.00 80.00 142.00
C 81.35 142.68 82.01 143.26 84.00 143.00
C 83.75 142.75 84.00 142.00 84.00 142.00
C 83.88 141.74 83.22 141.30 83.00 141.00
C 79.64 136.44 83.14 128.25 83.00 123.00 C 82.85 117.75 80.11 111.04 81.99 105.99 C 83.87 100.94 82.01 91.97 83.00 87.00 C 83.99 82.03 80.19 72.89 83.00 70.00
C 83.49 69.50 84.40 69.28 85.00 69.00
C 84.75 68.91 84.21 68.26 84.00 68.00
C 83.26 68.44 82.85 68.60 82.00 69.00 Z"/>
</g>
<g fill="#BBC2C2" fill-opacity="1.00" stroke="None">
<path d="
M 85.00 69.00 
C 84.40 69.28 83.49 69.50 83.00 70.00
C 82.00 73.99 85.21 74.11 84.00 80.00 C 82.80 85.90 83.61 86.06 84.00 94.00 C 84.39 101.94 82.31 112.33 84.00 120.00 C 85.69 127.67 81.35 126.72 83.00 133.00
C 83.81 132.94 85.42 133.42 86.00 134.00
C 85.38 132.71 84.67 131.57 85.00 130.00
C 86.26 130.08 85.56 132.06 87.00 132.00
C 86.56 131.21 87.04 128.93 87.00 128.00
C 86.92 125.77 85.99 126.18 89.00 125.00
C 90.43 124.44 90.19 124.13 92.00 125.00
C 91.66 124.71 90.22 123.29 90.00 123.00
C 88.46 120.98 89.00 117.71 89.00 115.00
C 88.75 115.25 87.50 115.00 87.00 115.00
C 87.27 117.98 86.80 121.02 87.00 124.00
C 84.92 121.90 86.50 117.85 86.00 115.00
C 86.86 113.73 88.80 109.71 89.00 113.00
C 89.38 111.72 90.05 111.71 89.00 110.00
C 88.02 110.13 86.99 109.90 86.00 110.00
C 87.12 102.29 88.00 92.22 86.00 84.00
C 85.78 83.62 86.00 83.00 86.00 83.00
C 84.64 81.35 87.16 81.27 88.00 80.00
C 89.98 77.03 86.41 73.73 87.00 69.00
C 87.68 68.59 85.38 68.82 85.00 69.00 Z"/>
</g>
<g fill="#8C928C" fill-opacity="1.00" stroke="None">
<path d="
M 72.00 71.00 
C 72.00 71.00 71.50 71.00 71.00 71.00
C 69.26 72.50 70.54 73.81 71.00 75.00
C 71.09 74.00 70.54 72.27 72.00 72.00
C 71.77 73.83 72.07 75.47 73.00 77.00
C 73.12 77.47 73.00 78.00 73.00 78.00
C 74.07 79.15 73.86 79.30 74.00 81.00
C 74.05 81.14 75.00 81.00 75.00 81.00
C 75.00 80.01 74.92 78.98 75.00 78.00
C 75.09 76.93 75.46 76.87 78.00 77.00
C 77.80 74.13 79.46 72.15 77.00 70.00
C 75.67 69.90 75.85 69.57 75.00 69.00
C 75.00 69.00 74.26 68.75 74.00 69.00
C 73.35 69.63 73.22 70.81 72.00 71.00 Z"/>
</g>
<g fill="#CFD5D6" fill-opacity="1.00" stroke="None">
<path d="
M 91.00 78.00 
C 90.61 74.96 91.45 71.76 90.00 69.00
C 90.00 69.00 89.20 69.24 89.00 69.00
C 89.78 71.61 89.30 76.16 91.00 78.00 Z"/>
</g>
<g fill="#D7DEDA" fill-opacity="1.00" stroke="None">
<path d="
M 91.00 78.00 
C 91.24 78.26 91.73 78.87 92.00 79.00
C 93.54 79.76 94.19 78.21 95.00 78.00
C 94.50 78.00 94.00 78.00 94.00 78.00
C 90.62 77.50 92.42 71.69 91.00 69.00
C 91.00 69.00 90.03 69.13 90.00 69.00
C 91.45 71.76 90.61 74.96 91.00 78.00 Z"/>
</g>
<g fill="#E4E5E7" fill-opacity="1.00" stroke="None">
<path d="
M 94.00 78.00 
C 95.31 75.41 95.78 70.95 93.00 69.00
C 93.00 69.00 92.50 69.00 92.00 69.00
C 92.00 69.00 91.50 69.00 91.00 69.00
C 92.42 71.69 90.62 77.50 94.00 78.00 Z"/>
</g>
<g fill="#EFF0F2" fill-opacity="1.00" stroke="None">
<path d="
M 94.00 78.00 
C 94.00 78.00 94.50 78.00 95.00 78.00
C 95.50 78.00 96.50 77.99 97.00 78.00
C 97.74 75.54 97.66 71.16 97.00 69.00
C 96.66 69.23 95.50 69.00 95.00 69.00
C 94.50 69.00 93.50 69.00 93.00 69.00
C 95.78 70.95 95.31 75.41 94.00 78.00 Z"/>
</g>
<g fill="#959692" fill-opacity="1.00" stroke="None">
<path d="
M 75.00 78.00 
C 75.93 77.18 79.97 78.70 80.00 76.00 C 80.03 73.30 80.13 72.24 79.00 70.00
C 78.50 70.00 77.50 70.04 77.00 70.00
C 79.46 72.15 77.80 74.13 78.00 77.00
C 75.46 76.87 75.09 76.93 75.00 78.00 Z"/>
</g>
<g fill="#B5B9B6" fill-opacity="1.00" stroke="None">
<path d="
M 83.00 141.00 
C 82.69 139.35 82.38 134.92 84.00 136.00
C 84.35 136.23 85.00 136.00 85.00 136.00
C 84.37 135.43 83.22 133.82 83.00 133.00
C 81.35 126.72 85.69 127.67 84.00 120.00 C 82.31 112.33 84.39 101.94 84.00 94.00 C 83.61 86.06 82.80 85.90 84.00 80.00 C 85.21 74.11 82.00 73.99 83.00 70.00
C 80.19 72.89 83.99 82.03 83.00 87.00 C 82.01 91.97 83.87 100.94 81.99 105.99 C 80.11 111.04 82.85 117.75 83.00 123.00 C 83.14 128.25 79.64 136.44 83.00 141.00 Z"/>
</g>
<g fill="#BBC2C2" fill-opacity="1.00" stroke="None">
<path d="
M 57.00 86.00 
C 57.00 89.31 56.80 92.70 57.00 96.00
C 57.10 97.66 56.92 99.34 57.00 101.00
C 59.83 93.83 56.82 83.91 61.00 77.00
C 62.11 77.98 62.28 79.32 64.00 78.00
C 66.94 78.06 70.07 78.26 73.00 78.00
C 73.00 78.00 73.12 77.47 73.00 77.00
C 72.84 76.77 71.50 77.00 71.00 77.00
C 70.50 77.00 70.00 77.00 70.00 77.00
C 66.19 76.76 64.88 73.04 69.00 72.00
C 69.35 71.91 69.74 71.12 70.00 71.00
C 58.96 72.81 57.00 74.06 57.00 86.00 Z"/>
</g>
<g fill="#AAABA7" fill-opacity="1.00" stroke="None">
<path d="
M 69.00 72.00 
C 67.93 73.40 68.83 75.71 70.00 77.00
C 70.00 77.00 70.50 77.00 71.00 77.00
C 71.23 76.84 71.17 75.43 71.00 75.00
C 70.54 73.81 69.26 72.50 71.00 71.00
C 71.00 71.00 70.49 70.92 70.00 71.00
C 69.74 71.12 69.35 71.91 69.00 72.00 Z"/>
</g>
<g fill="#B5B6B2" fill-opacity="1.00" stroke="None">
<path d="
M 70.00 77.00 
C 68.83 75.71 67.93 73.40 69.00 72.00
C 64.88 73.04 66.19 76.76 70.00 77.00 Z"/>
</g>
<g fill="#959692" fill-opacity="1.00" stroke="None">
<path d="
M 71.00 75.00 
C 71.17 75.43 71.23 76.84 71.00 77.00
C 71.50 77.00 72.84 76.77 73.00 77.00
C 72.07 75.47 71.77 73.83 72.00 72.00
C 70.54 72.27 71.09 74.00 71.00 75.00 Z"/>
</g>
<g fill="#A0A6A7" fill-opacity="1.00" stroke="None">
<path d="
M 81.00 88.00 
C 81.36 84.60 82.04 79.49 82.00 76.00
C 81.64 78.97 81.00 83.46 81.00 88.00 Z"/>
</g>
<g fill="#C6CDCD" fill-opacity="1.00" stroke="None">
<path d="
M 57.00 96.00 
C 57.00 96.00 56.00 96.00 56.00 96.00
C 56.00 100.84 55.78 104.74 59.75 107.25 C 63.72 109.75 67.08 110.55 64.00 106.00
C 63.21 105.21 61.77 104.71 61.00 104.00
C 60.57 103.84 59.69 106.87 59.00 102.00
C 58.27 99.93 59.55 97.14 59.00 95.00
C 60.26 95.08 59.56 97.06 61.00 97.00
C 60.76 95.15 61.80 94.11 62.00 93.00
C 62.00 92.00 62.00 91.00 62.00 90.00
C 62.00 88.04 61.80 85.95 62.00 84.00
C 62.15 82.57 62.48 78.82 64.00 78.00
C 62.28 79.32 62.11 77.98 61.00 77.00
C 56.82 83.91 59.83 93.83 57.00 101.00
C 56.92 99.34 57.10 97.66 57.00 96.00 Z"/>
</g>
<g fill="#E4E5E7" fill-opacity="1.00" stroke="None">
<path d="
M 92.00 79.00 
C 91.00 83.73 90.72 88.71 92.00 93.00
C 95.33 92.79 92.30 95.45 91.00 96.00
C 93.03 96.19 94.14 94.32 95.00 97.00
C 99.40 93.54 90.80 78.19 101.00 79.00
C 100.49 77.42 98.28 78.02 97.00 78.00
C 96.50 77.99 95.50 78.00 95.00 78.00
C 94.19 78.21 93.54 79.76 92.00 79.00 Z"/>
</g>
<g fill="#8C928C" fill-opacity="1.00" stroke="None">
<path d="
M 76.00 85.00 
C 76.08 85.50 77.32 87.66 78.00 88.00
C 77.30 84.73 79.43 82.23 79.00 79.00
C 78.00 79.00 77.00 79.00 76.00 79.00
C 75.91 80.99 76.12 83.01 76.00 85.00 Z"/>
</g>
<g fill="#959692" fill-opacity="1.00" stroke="None">
<path d="
M 76.00 85.00 
C 75.81 88.24 76.85 92.50 75.00 95.00
C 75.00 95.50 75.00 96.00 75.00 96.00
C 75.00 96.50 75.00 97.50 75.00 98.00
C 78.36 95.67 75.88 101.26 78.00 102.00
C 79.44 99.24 78.81 92.91 79.22 90.22 C 79.63 87.53 81.81 80.36 79.00 79.00
C 79.43 82.23 77.30 84.73 78.00 88.00
C 77.32 87.66 76.08 85.50 76.00 85.00 Z"/>
</g>
<g fill="#DEDFE1" fill-opacity="1.00" stroke="None">
<path d="
M 90.00 83.00 
C 89.96 83.50 90.00 84.00 90.00 84.00
C 90.00 87.29 89.70 90.73 90.00 94.00
C 90.35 93.77 91.00 94.00 91.00 94.00
C 91.35 93.97 92.08 93.26 92.00 93.00
C 90.72 88.71 91.00 83.73 92.00 79.00
C 90.59 80.50 90.20 80.73 90.00 83.00 Z"/>
</g>
<g fill="#FEFFFF" fill-opacity="1.00" stroke="None">
<path d="
M 105.00 79.00 
C 100.01 80.41 102.21 89.86 101.80 94.75 C 101.40 99.65 101.49 102.52 102.00 108.00
C 106.45 101.07 104.44 88.47 105.00 79.00 Z"/>
</g>
<g fill="#565758" fill-opacity="1.00" stroke="None">
<path d="
M 86.00 83.00 
C 87.86 82.67 88.20 82.09 88.00 80.00
C 87.16 81.27 84.64 81.35 86.00 83.00 Z"/>
</g>
<g fill="#272729" fill-opacity="1.00" stroke="None">
<path d="
M 86.00 83.00 
C 86.00 83.00 85.78 83.62 86.00 84.00
C 87.57 84.64 88.66 83.30 90.00 83.00
C 90.36 82.18 88.14 80.45 88.00 80.00
C 88.20 82.09 87.86 82.67 86.00 83.00 Z"/>
</g>
<g fill="#BBC2C2" fill-opacity="1.00" stroke="None">
<path d="
M 74.00 86.00 
C 74.05 86.15 75.00 86.00 75.00 86.00
C 75.00 84.33 75.00 82.67 75.00 81.00
C 75.00 81.00 74.05 81.14 74.00 81.00
C 74.13 82.64 74.00 84.35 74.00 86.00 Z"/>
</g>
<g fill="#C6CDCD" fill-opacity="1.00" stroke="None">
<path d="
M 86.00 84.00 
C 88.00 92.22 87.12 102.29 86.00 110.00
C 86.99 109.90 88.02 110.13 89.00 110.00
C 88.78 109.64 89.00 109.00 89.00 109.00
C 87.97 107.61 88.95 106.35 89.00 105.00
C 88.59 102.03 88.76 99.84 90.00 97.00
C 90.18 96.58 90.00 96.00 90.00 96.00
C 90.07 95.64 91.32 94.36 91.00 94.00
C 91.00 94.00 90.35 93.77 90.00 94.00
C 88.43 95.05 88.78 85.65 90.00 84.00
C 90.00 84.00 89.96 83.50 90.00 83.00
C 88.66 83.30 87.57 84.64 86.00 84.00 Z"/>
</g>
<g fill="#E2E6E1" fill-opacity="1.00" stroke="None">
<path d="
M 62.00 90.00 
C 62.49 88.02 61.91 85.64 62.00 84.00
C 61.80 85.95 62.00 88.04 62.00 90.00 Z"/>
</g>
<g fill="#D3D4D6" fill-opacity="1.00" stroke="None">
<path d="
M 90.00 94.00 
C 89.70 90.73 90.00 87.29 90.00 84.00
C 88.78 85.65 88.43 95.05 90.00 94.00 Z"/>
</g>
<g fill="#E2E6E1" fill-opacity="1.00" stroke="None">
<path d="
M 56.00 96.00 
C 56.00 96.00 57.00 96.00 57.00 96.00
C 56.80 92.70 57.00 89.31 57.00 86.00
C 56.74 88.69 56.00 92.58 56.00 96.00 Z"/>
</g>
<g fill="#C6CDCD" fill-opacity="1.00" stroke="None">
<path d="
M 74.00 96.00 
C 74.00 96.04 75.00 96.00 75.00 96.00
C 75.00 96.00 75.00 95.50 75.00 95.00
C 75.00 92.00 75.00 89.00 75.00 86.00
C 75.00 86.00 74.05 86.15 74.00 86.00
C 74.00 89.33 73.93 92.67 74.00 96.00 Z"/>
</g>
<g fill="#FEFFFF" fill-opacity="1.00" stroke="None">
<path d="
M 0.00 175.00 
L 78.00 175.00
C 35.79 170.32 -0.06 130.80 0.00 88.00
L 0.00 175.00 Z"/>
</g>
<g fill="#FEFFFF" fill-opacity="1.00" stroke="None">
<path d="
M 98.00 175.00 
L 176.00 175.00
L 176.00 88.00
C 176.06 130.73 140.29 170.31 98.00 175.00 Z"/>
</g>
<g fill="#D3D4D6" fill-opacity="1.00" stroke="None">
<path d="
M 61.00 97.00 
C 61.06 97.49 61.00 98.00 61.00 98.00
C 61.25 98.25 62.00 98.00 62.00 98.00
C 62.00 96.33 62.00 94.67 62.00 93.00
C 61.80 94.11 60.76 95.15 61.00 97.00 Z"/>
</g>
<g fill="#A0A6A7" fill-opacity="1.00" stroke="None">
<path d="
M 80.00 98.00 
C 80.15 96.83 80.95 94.85 81.00 93.00
C 80.85 94.16 80.06 96.17 80.00 98.00 Z"/>
</g>
<g fill="#5F6062" fill-opacity="1.00" stroke="None">
<path d="
M 91.00 94.00 
C 91.32 94.36 90.07 95.64 90.00 96.00
C 90.25 95.75 91.00 96.00 91.00 96.00
C 92.30 95.45 95.33 92.79 92.00 93.00
C 92.08 93.26 91.35 93.97 91.00 94.00 Z"/>
</g>
<g fill="#CFD5D6" fill-opacity="1.00" stroke="None">
<path d="
M 59.00 102.00 
C 59.22 102.62 60.47 103.51 61.00 104.00
C 61.77 104.71 63.21 105.21 64.00 106.00
C 63.37 105.07 62.53 104.05 62.00 103.00
C 61.24 101.49 60.74 100.11 61.00 98.00
C 61.00 98.00 61.06 97.49 61.00 97.00
C 59.56 97.06 60.26 95.08 59.00 95.00
C 59.55 97.14 58.27 99.93 59.00 102.00 Z"/>
</g>
<g fill="#5F6062" fill-opacity="1.00" stroke="None">
<path d="
M 91.00 96.00 
C 91.00 96.00 90.25 95.75 90.00 96.00
C 90.00 96.00 90.18 96.58 90.00 97.00
C 90.87 98.12 92.66 98.88 94.00 99.00
C 94.50 99.05 95.00 99.00 95.00 99.00
C 96.08 98.32 95.00 97.01 95.00 97.00
C 94.14 94.32 93.03 96.19 91.00 96.00 Z"/>
</g>
<g fill="#E2E6E1" fill-opacity="1.00" stroke="None">
<path d="
M 75.00 103.00 
C 74.94 101.67 75.00 100.33 75.00 99.00
C 75.00 99.00 75.00 98.50 75.00 98.00
C 75.00 97.50 75.00 96.50 75.00 96.00
C 75.00 96.00 74.00 96.04 74.00 96.00
C 74.05 98.57 74.65 101.04 75.00 103.00 Z"/>
</g>
<g fill="#DEDFE1" fill-opacity="1.00" stroke="None">
<path d="
M 89.00 105.00 
C 89.26 106.90 90.39 107.56 89.00 109.00
C 89.00 109.00 88.78 109.64 89.00 110.00
C 90.05 111.71 89.38 111.72 89.00 113.00
C 88.86 113.46 89.00 114.50 89.00 115.00
C 89.00 117.71 88.46 120.98 90.00 123.00
C 88.93 120.46 91.47 114.98 91.00 112.00 C 90.53 109.02 90.05 101.88 92.00 100.00
C 91.21 99.28 90.54 97.88 90.00 97.00
C 88.76 99.84 88.59 102.03 89.00 105.00 Z"/>
</g>
<g fill="#7D7E80" fill-opacity="1.00" stroke="None">
<path d="
M 92.00 100.00 
C 92.27 100.25 93.00 100.00 93.00 100.00
C 93.35 99.97 93.74 99.12 94.00 99.00
C 92.66 98.88 90.87 98.12 90.00 97.00
C 90.54 97.88 91.21 99.28 92.00 100.00 Z"/>
</g>
<g fill="#D7DEDA" fill-opacity="1.00" stroke="None">
<path d="
M 62.00 103.00 
C 61.62 101.57 62.00 99.49 62.00 98.00
C 62.00 98.00 61.25 98.25 61.00 98.00
C 60.74 100.11 61.24 101.49 62.00 103.00 Z"/>
</g>
<g fill="#EFF0F2" fill-opacity="1.00" stroke="None">
<path d="
M 93.00 100.00 
C 93.45 104.97 89.84 123.11 94.00 125.00
C 96.20 122.02 97.99 101.89 95.00 99.00
C 95.00 99.00 94.50 99.05 94.00 99.00
C 93.74 99.12 93.35 99.97 93.00 100.00 Z"/>
</g>
<g fill="#E4E5E7" fill-opacity="1.00" stroke="None">
<path d="
M 90.00 123.00 
C 90.22 123.29 91.66 124.71 92.00 125.00
C 92.24 125.21 93.93 125.85 94.00 126.00
C 94.00 126.00 94.19 125.09 94.00 125.00
C 89.84 123.11 93.45 104.97 93.00 100.00
C 93.00 100.00 92.27 100.25 92.00 100.00
C 90.05 101.88 90.53 109.02 91.00 112.00 C 91.47 114.98 88.93 120.46 90.00 123.00 Z"/>
</g>
<g fill="#D3D4D6" fill-opacity="1.00" stroke="None">
<path d="
M 61.00 104.00 
C 60.47 103.51 59.22 102.62 59.00 102.00
C 59.69 106.87 60.57 103.84 61.00 104.00 Z"/>
</g>
<g fill="#A0A6A7" fill-opacity="1.00" stroke="None">
<path d="
M 77.00 107.00 
C 76.85 108.19 77.59 109.51 79.00 109.00
C 78.70 107.10 79.77 105.72 80.00 104.00
C 79.75 104.84 77.94 106.47 77.00 107.00 Z"/>
</g>
<g fill="#D3D4D6" fill-opacity="1.00" stroke="None">
<path d="
M 89.00 109.00 
C 90.39 107.56 89.26 106.90 89.00 105.00
C 88.95 106.35 87.97 107.61 89.00 109.00 Z"/>
</g>
<g fill="#C6CDCD" fill-opacity="1.00" stroke="None">
<path d="
M 77.00 116.00 
C 76.92 114.04 76.30 112.39 76.00 111.00
C 76.17 112.67 76.84 114.89 77.00 116.00 Z"/>
</g>
<g fill="#5B5B5D" fill-opacity="1.00" stroke="None">
<path d="
M 86.00 115.00 
C 86.00 114.96 87.00 115.00 87.00 115.00
C 87.50 115.00 88.75 115.25 89.00 115.00
C 89.00 114.50 88.86 113.46 89.00 113.00
C 88.80 109.71 86.86 113.73 86.00 115.00 Z"/>
</g>
<g fill="#A0A6A7" fill-opacity="1.00" stroke="None">
<path d="
M 78.00 121.00 
C 78.08 120.81 79.69 120.76 80.00 121.00
C 80.63 118.08 78.97 115.74 79.00 113.00
C 77.22 114.70 78.00 118.48 78.00 121.00 Z"/>
</g>
<g fill="#FEFFFF" fill-opacity="1.00" stroke="None">
<path d="
M 103.00 114.00 
C 96.23 120.36 100.14 133.68 98.00 142.00
C 106.91 138.26 99.10 122.20 103.00 114.00 Z"/>
</g>
<g fill="#CDCED0" fill-opacity="1.00" stroke="None">
<path d="
M 87.00 115.00 
C 87.00 115.00 86.00 114.96 86.00 115.00
C 86.50 117.85 84.92 121.90 87.00 124.00
C 86.80 121.02 87.27 117.98 87.00 115.00 Z"/>
</g>
<g fill="#999E9D" fill-opacity="1.00" stroke="None">
<path d="
M 77.00 136.00 
C 77.30 139.90 76.73 140.36 80.00 142.00
C 82.50 142.00 81.09 137.37 81.00 135.00
C 80.55 131.82 80.00 127.83 80.00 124.00
C 80.00 123.00 80.00 122.00 80.00 121.00
C 79.69 120.76 78.08 120.81 78.00 121.00
C 78.00 125.90 77.09 131.83 77.00 136.00 Z"/>
</g>
<g fill="#A0A6A7" fill-opacity="1.00" stroke="None">
<path d="
M 81.00 135.00 
C 80.85 131.12 80.72 127.28 80.00 124.00
C 80.00 127.83 80.55 131.82 81.00 135.00 Z"/>
</g>
<g fill="#4F4F51" fill-opacity="1.00" stroke="None">
<path d="
M 89.00 125.00 
C 91.09 125.02 90.70 126.22 92.00 127.00
C 92.71 127.04 93.74 128.65 94.00 127.00
C 94.00 127.00 94.00 126.50 94.00 126.00
C 93.93 125.85 92.24 125.21 92.00 125.00
C 90.19 124.13 90.43 124.44 89.00 125.00 Z"/>
</g>
<g fill="#2B2C2D" fill-opacity="1.00" stroke="None">
<path d="
M 87.00 128.00 
C 87.01 127.66 87.65 127.11 88.00 127.00
C 88.56 126.83 91.52 126.71 92.00 127.00
C 90.70 126.22 91.09 125.02 89.00 125.00
C 85.99 126.18 86.92 125.77 87.00 128.00 Z"/>
</g>
<g fill="#B7B8BA" fill-opacity="1.00" stroke="None">
<path d="
M 87.00 128.00 
C 86.99 128.37 88.77 129.67 89.00 130.00
C 90.62 130.48 92.18 129.85 92.00 128.00
C 89.77 129.45 89.42 128.04 88.00 127.00
C 87.65 127.11 87.01 127.66 87.00 128.00 Z"/>
</g>
<g fill="#767678" fill-opacity="1.00" stroke="None">
<path d="
M 92.00 128.00 
C 91.95 127.50 92.00 127.00 92.00 127.00
C 91.52 126.71 88.56 126.83 88.00 127.00
C 89.42 128.04 89.77 129.45 92.00 128.00 Z"/>
</g>
<g fill="#DEDFE1" fill-opacity="1.00" stroke="None">
<path d="
M 92.00 128.00 
C 92.18 129.85 90.62 130.48 89.00 130.00
C 89.45 130.65 89.71 131.28 90.00 132.00
C 90.62 133.55 88.95 132.91 87.00 133.00
C 87.00 133.50 87.00 134.00 87.00 134.00
C 88.56 134.94 90.13 135.19 92.00 135.00
C 92.35 131.67 96.72 130.39 94.00 127.00
C 93.74 128.65 92.71 127.04 92.00 127.00
C 92.00 127.00 91.95 127.50 92.00 128.00 Z"/>
</g>
<g fill="#D3D4D6" fill-opacity="1.00" stroke="None">
<path d="
M 87.00 132.00 
C 87.46 131.34 90.13 131.31 90.00 132.00
C 89.71 131.28 89.45 130.65 89.00 130.00
C 88.77 129.67 86.99 128.37 87.00 128.00
C 87.04 128.93 86.56 131.21 87.00 132.00 Z"/>
</g>
<g fill="#CDCED0" fill-opacity="1.00" stroke="None">
<path d="
M 86.00 134.00 
C 86.09 134.20 87.00 134.00 87.00 134.00
C 87.00 134.00 87.00 133.50 87.00 133.00
C 87.00 132.50 87.00 132.00 87.00 132.00
C 85.56 132.06 86.26 130.08 85.00 130.00
C 84.67 131.57 85.38 132.71 86.00 134.00 Z"/>
</g>
<g fill="#BFC0C2" fill-opacity="1.00" stroke="None">
<path d="
M 87.00 132.00 
C 87.00 132.00 87.00 132.50 87.00 133.00
C 88.95 132.91 90.62 133.55 90.00 132.00
C 90.13 131.31 87.46 131.34 87.00 132.00 Z"/>
</g>
<g fill="#676869" fill-opacity="1.00" stroke="None">
<path d="
M 85.00 136.00 
C 85.50 136.00 86.00 136.00 86.00 136.00
C 87.05 134.87 86.09 135.55 86.00 134.00
C 85.42 133.42 83.81 132.94 83.00 133.00
C 83.22 133.82 84.37 135.43 85.00 136.00 Z"/>
</g>
<g fill="#B7B8BA" fill-opacity="1.00" stroke="None">
<path d="
M 93.00 135.00 
C 93.35 135.03 94.06 135.71 94.00 136.00
C 95.36 135.58 96.33 134.20 97.00 133.00
C 95.32 132.81 94.01 134.09 93.00 135.00 Z"/>
</g>
<g fill="#9C9D9F" fill-opacity="1.00" stroke="None">
<path d="
M 86.00 136.00 
C 86.25 136.25 86.00 137.00 86.00 137.00
C 86.25 137.25 87.00 137.00 87.00 137.00
C 88.33 137.00 89.67 137.00 91.00 137.00
C 91.50 137.00 92.00 137.00 92.00 137.00
C 92.50 137.00 93.00 137.00 93.00 137.00
C 93.26 136.88 93.67 136.18 94.00 136.00
C 94.06 135.71 93.35 135.03 93.00 135.00
C 93.00 135.00 92.49 134.95 92.00 135.00
C 90.13 135.19 88.56 134.94 87.00 134.00
C 87.00 134.00 86.09 134.20 86.00 134.00
C 86.09 135.55 87.05 134.87 86.00 136.00 Z"/>
</g>
<g fill="#BBC2C2" fill-opacity="1.00" stroke="None">
<path d="
M 83.00 141.00 
C 83.22 141.30 83.88 141.74 84.00 142.00
C 84.00 140.14 83.62 137.82 84.00 136.00
C 82.38 134.92 82.69 139.35 83.00 141.00 Z"/>
</g>
<g fill="#BFC0C2" fill-opacity="1.00" stroke="None">
<path d="
M 84.00 142.00 
C 84.00 142.00 83.75 142.75 84.00 143.00
C 84.00 143.00 84.50 143.00 85.00 143.00
C 85.50 143.00 86.00 143.00 86.00 143.00
C 86.38 141.18 86.00 138.86 86.00 137.00
C 86.00 137.00 86.25 136.25 86.00 136.00
C 86.00 136.00 85.50 136.00 85.00 136.00
C 85.00 136.00 84.35 136.23 84.00 136.00
C 83.62 137.82 84.00 140.14 84.00 142.00 Z"/>
</g>
<g fill="#CDCED0" fill-opacity="1.00" stroke="None">
<path d="
M 86.00 143.00 
C 87.32 142.04 87.39 138.66 87.00 137.00
C 87.00 137.00 86.25 137.25 86.00 137.00
C 86.00 138.86 86.38 141.18 86.00 143.00 Z"/>
</g>
<g fill="#D3D4D6" fill-opacity="1.00" stroke="None">
<path d="
M 86.00 143.00 
C 86.00 143.00 85.50 143.00 85.00 143.00
C 86.01 143.94 86.37 144.20 88.00 144.00
C 87.58 142.26 87.61 139.02 89.00 138.00
C 89.27 137.80 90.61 137.26 91.00 137.00
C 89.67 137.00 88.33 137.00 87.00 137.00
C 87.39 138.66 87.32 142.04 86.00 143.00 Z"/>
</g>
<g fill="#E4E5E7" fill-opacity="1.00" stroke="None">
<path d="
M 89.00 138.00 
C 88.19 139.05 89.28 142.64 89.00 144.00
C 90.24 144.00 91.79 144.25 93.00 144.00
C 90.28 143.33 90.89 138.87 92.00 137.00
C 92.00 137.00 91.50 137.00 91.00 137.00
C 90.61 137.26 89.27 137.80 89.00 138.00 Z"/>
</g>
<g fill="#EFF0F2" fill-opacity="1.00" stroke="None">
<path d="
M 93.00 144.00 
C 95.50 143.49 94.31 138.93 93.00 137.00
C 93.00 137.00 92.50 137.00 92.00 137.00
C 90.89 138.87 90.28 143.33 93.00 144.00 Z"/>
</g>
<g fill="#DEDFE1" fill-opacity="1.00" stroke="None">
<path d="
M 88.00 144.00 
C 88.00 144.00 88.50 144.00 89.00 144.00
C 89.28 142.64 88.19 139.05 89.00 138.00
C 87.61 139.02 87.58 142.26 88.00 144.00 Z"/>
</g>
</svg>